SplineFontDB: 3.0
FontName: StrokeInputKeyboard
FullName: Stroke Input Keyboard
FamilyName: Stroke Input Keyboard
Weight: Regular
Copyright: Copyright (c) 2021 Conway\nLicensed under GPL-3.0-only, see <https://www.gnu.org/licenses/>.\n\nModified from a 2015 version of Noto Sans CJK TC, which is:\n\nCopyright (c) 2015 Google and others\nLicensed under Apache-2.0, see <https://www.apache.org/licenses/LICENSE-2.0.html>.
UComments: "2021-6-28: Created with FontForge (http://fontforge.org)"
Version: 1.5.1
ItalicAngle: 0
UnderlinePosition: -100
UnderlineWidth: 50
Ascent: 800
Descent: 200
InvalidEm: 0
LayerCount: 2
Layer: 0 0 "Back" 1
Layer: 1 0 "Fore" 0
XUID: [1021 562 1413051694 6661869]
OS2Version: 0
OS2_WeightWidthSlopeOnly: 0
OS2_UseTypoMetrics: 1
CreationTime: 1624815324
ModificationTime: 1626967245
OS2TypoAscent: 0
OS2TypoAOffset: 1
OS2TypoDescent: 0
OS2TypoDOffset: 1
OS2TypoLinegap: 0
OS2WinAscent: 0
OS2WinAOffset: 1
OS2WinDescent: 0
OS2WinDOffset: 1
HheadAscent: 0
HheadAOffset: 1
HheadDescent: 0
HheadDOffset: 1
OS2Vendor: 'PfEd'
MarkAttachClasses: 1
DEI: 91125
Encoding: UnicodeFull
UnicodeInterp: none
NameList: AGL For New Fonts
DisplaySize: -72
AntiAlias: 1
FitToEm: 0
WinInfo: 84 12 10
BeginPrivate: 0
EndPrivate
BeginChars: 1114112 144

StartChar: exclam
Encoding: 33 33 0
Width: 323
Flags: HW
LayerCount: 2
Fore
SplineSet
115 749 m 1
 208 749 l 1
 193 221 l 1
 130 221 l 1
 115 749 l 1
161 -13 m 0
 143 -13 127 -7 114 6 c 128
 101 19 95 35 95 56 c 256
 95 77 101 94 114 107 c 128
 127 120 143 127 161 127 c 0
 180 127 195 120 208 107 c 128
 221 94 227 77 227 56 c 256
 227 35 221 19 208 6 c 128
 195 -7 180 -13 161 -13 c 0
EndSplineSet
Validated: 1
EndChar

StartChar: quotedbl
Encoding: 34 34 1
Width: 475
Flags: HW
LayerCount: 2
Fore
SplineSet
92 668 m 1
 90 771 l 1
 186 771 l 1
 184 668 l 1
 166 483 l 1
 110 483 l 1
 92 668 l 1
289 668 m 1
 286 771 l 1
 383 771 l 1
 381 668 l 1
 362 483 l 1
 307 483 l 1
 289 668 l 1
EndSplineSet
Validated: 1
EndChar

StartChar: numbersign
Encoding: 35 35 2
Width: 555
Flags: HW
LayerCount: 2
Fore
SplineSet
128 228 m 1
 40 228 l 1
 40 292 l 1
 136 292 l 1
 157 458 l 1
 62 458 l 1
 62 521 l 1
 164 521 l 1
 190 726 l 1
 249 726 l 1
 224 521 l 1
 372 521 l 1
 399 726 l 1
 457 726 l 1
 432 521 l 1
 521 521 l 1
 521 458 l 1
 425 458 l 1
 404 292 l 1
 499 292 l 1
 499 228 l 1
 396 228 l 1
 369 0 l 1
 309 0 l 1
 336 228 l 1
 188 228 l 1
 160 0 l 1
 101 0 l 1
 128 228 l 1
344 292 m 1
 365 458 l 1
 216 458 l 1
 196 292 l 1
 344 292 l 1
EndSplineSet
Validated: 1
EndChar

StartChar: dollar
Encoding: 36 36 3
Width: 555
Flags: HW
LayerCount: 2
Fore
SplineSet
424 587 m 1
 403 607 384 623 364 634 c 128
 344 645 319 650 288 650 c 0
 253 650 226 640 206 620 c 128
 186 600 175 575 175 542 c 0
 175 515 183 493 198 476 c 128
 213 459 233 443 256 430 c 128
 279 417 305 404 332 392 c 128
 359 380 384 364 407 347 c 128
 430 330 450 308 465 282 c 128
 480 256 488 224 488 184 c 0
 488 131 473 86 442 52 c 128
 411 18 368 -3 315 -10 c 1
 315 -123 l 1
 249 -123 l 1
 249 -12 l 1
 213 -9 178 1 144 17 c 128
 110 33 82 52 58 74 c 1
 101 136 l 1
 124 116 150 98 179 84 c 128
 208 70 239 63 273 63 c 0
 315 63 347 73 368 94 c 128
 389 115 399 143 399 178 c 0
 399 209 391 234 376 253 c 128
 361 272 341 289 318 304 c 128
 295 319 269 332 242 344 c 128
 215 356 190 371 167 388 c 128
 144 405 124 424 109 448 c 128
 94 472 86 502 86 538 c 0
 86 563 90 587 98 608 c 128
 106 629 118 647 132 663 c 128
 146 679 163 692 183 702 c 128
 203 712 225 720 249 723 c 1
 249 836 l 1
 315 836 l 1
 315 725 l 1
 351 721 381 711 406 696 c 128
 431 681 453 662 473 641 c 1
 424 587 l 1
EndSplineSet
Validated: 1
EndChar

StartChar: percent
Encoding: 37 37 4
Width: 921
Flags: HW
LayerCount: 2
Fore
SplineSet
205 284 m 0
 155 284 114 304 84 344 c 128
 54 384 39 442 39 517 c 0
 39 591 54 648 84 688 c 128
 114 728 155 747 205 747 c 0
 256 747 296 728 326 688 c 128
 356 648 372 591 372 517 c 0
 372 442 356 384 326 344 c 128
 296 304 256 284 205 284 c 0
631 747 m 1
 693 747 l 1
 288 -13 l 1
 227 -13 l 1
 631 747 l 1
205 341 m 0
 234 341 258 356 276 385 c 128
 294 414 303 458 303 517 c 256
 303 576 294 619 276 648 c 128
 258 677 234 691 205 691 c 0
 176 691 153 677 135 648 c 128
 117 619 108 576 108 517 c 256
 108 458 117 414 135 385 c 128
 153 356 176 341 205 341 c 0
716 -13 m 256
 666 -13 626 7 595 47 c 128
 564 87 549 144 549 219 c 0
 549 293 564 350 595 390 c 128
 626 430 666 449 716 449 c 256
 766 449 806 430 836 390 c 128
 866 350 882 293 882 219 c 0
 882 144 866 87 836 47 c 128
 806 7 766 -13 716 -13 c 256
716 43 m 0
 745 43 768 58 786 87 c 128
 804 116 813 160 813 219 c 256
 813 278 804 321 786 350 c 128
 768 379 745 393 716 393 c 0
 687 393 663 379 645 350 c 128
 627 321 618 278 618 219 c 256
 618 160 627 116 645 87 c 128
 663 58 687 43 716 43 c 0
EndSplineSet
Validated: 1
EndChar

StartChar: ampersand
Encoding: 38 38 5
Width: 680
Flags: HW
LayerCount: 2
Fore
SplineSet
638 -13 m 1
 613 -6 586 4 558 18 c 128
 530 32 501 50 471 71 c 1
 443 46 412 25 377 10 c 128
 342 -5 303 -13 259 -13 c 0
 226 -13 195 -8 168 2 c 128
 141 12 118 26 98 44 c 128
 78 62 63 83 52 108 c 128
 41 133 36 161 36 190 c 0
 36 215 40 238 48 258 c 128
 56 278 67 297 80 314 c 128
 93 331 109 346 126 361 c 128
 143 376 161 389 180 402 c 1
 165 432 152 461 144 490 c 128
 136 519 132 546 132 573 c 0
 132 598 136 621 144 642 c 128
 152 663 163 680 178 696 c 128
 193 712 211 725 232 734 c 128
 253 743 276 747 301 747 c 0
 347 747 383 733 408 706 c 128
 433 679 445 645 445 602 c 0
 445 578 440 556 430 536 c 128
 420 516 408 498 393 480 c 128
 378 462 360 445 340 430 c 128
 320 415 300 400 280 385 c 1
 304 347 332 310 364 274 c 128
 396 238 431 207 466 178 c 1
 512 238 547 310 570 395 c 1
 654 395 l 1
 640 346 623 300 602 256 c 128
 581 212 555 171 526 133 c 1
 576 98 622 74 663 63 c 1
 638 -13 l 1
211 575 m 0
 211 555 214 534 220 512 c 128
 226 490 235 468 246 445 c 1
 263 456 279 468 294 479 c 128
 309 490 322 502 334 515 c 128
 346 528 354 541 361 555 c 128
 368 569 371 584 371 600 c 0
 371 621 366 640 355 656 c 128
 344 672 326 681 301 681 c 0
 273 681 251 671 235 651 c 128
 219 631 211 606 211 575 c 0
125 195 m 0
 125 175 129 157 136 140 c 128
 143 123 153 109 166 97 c 128
 179 85 194 76 212 70 c 128
 230 64 249 60 270 60 c 0
 295 60 320 65 343 76 c 128
 366 87 389 101 410 119 c 1
 374 151 339 185 306 222 c 128
 273 259 243 298 217 338 c 1
 191 317 170 295 152 272 c 128
 134 249 125 224 125 195 c 0
EndSplineSet
Validated: 1
EndChar

StartChar: quotesingle
Encoding: 39 39 6
Width: 278
Flags: HW
LayerCount: 2
Fore
SplineSet
92 668 m 1
 90 771 l 1
 186 771 l 1
 184 668 l 1
 166 483 l 1
 110 483 l 1
 92 668 l 1
EndSplineSet
Validated: 1
EndChar

StartChar: parenleft
Encoding: 40 40 7
Width: 338
Flags: HW
LayerCount: 2
Fore
SplineSet
239 -197 m 1
 193 -122 157 -44 131 39 c 128
 105 122 92 212 92 311 c 0
 92 409 105 499 131 582 c 128
 157 665 193 743 239 818 c 1
 296 792 l 1
 252 720 220 644 199 562 c 128
 178 480 168 396 168 311 c 256
 168 226 178 142 199 60 c 128
 220 -22 252 -99 296 -170 c 1
 239 -197 l 1
EndSplineSet
Validated: 1
EndChar

StartChar: parenright
Encoding: 41 41 8
Width: 338
Flags: HW
LayerCount: 2
Fore
SplineSet
43 -170 m 1
 86 -99 119 -22 140 60 c 128
 161 142 171 226 171 311 c 256
 171 396 161 480 140 562 c 128
 119 644 86 720 43 792 c 1
 99 818 l 1
 146 743 182 665 208 582 c 128
 234 499 247 409 247 311 c 0
 247 212 234 122 208 39 c 128
 182 -44 146 -122 99 -197 c 1
 43 -170 l 1
EndSplineSet
Validated: 1
EndChar

StartChar: asterisk
Encoding: 42 42 9
Width: 467
Flags: HW
LayerCount: 2
Fore
SplineSet
110 503 m 1
 173 607 l 1
 64 652 l 1
 82 703 l 1
 196 675 l 1
 206 796 l 1
 260 796 l 1
 270 676 l 1
 384 703 l 1
 401 652 l 1
 292 607 l 1
 356 503 l 1
 312 471 l 1
 233 566 l 1
 154 471 l 1
 110 503 l 1
EndSplineSet
Validated: 1
EndChar

StartChar: plus
Encoding: 43 43 10
Width: 800
Flags: HW
LayerCount: 2
Fore
SplineSet
369 339 m 1
 71 339 l 1
 71 399 l 1
 369 399 l 1
 369 671 l 1
 431 671 l 1
 431 399 l 1
 729 399 l 1
 729 339 l 1
 431 339 l 1
 431 65 l 1
 369 65 l 1
 369 339 l 1
EndSplineSet
Validated: 1
EndChar

StartChar: comma
Encoding: 44 44 11
Width: 278
Flags: HW
LayerCount: 2
Fore
SplineSet
53 -136 m 1
 84 -123 109 -104 126 -81 c 128
 143 -58 152 -31 153 0 c 1
 150 -1 147 -1 142 -1 c 0
 125 -1 110 4 96 15 c 128
 82 26 75 42 75 63 c 0
 75 82 82 98 96 110 c 128
 110 122 125 127 144 127 c 0
 168 127 186 117 200 98 c 128
 214 79 221 53 221 19 c 0
 221 -29 208 -71 182 -107 c 128
 156 -143 120 -171 75 -190 c 1
 53 -136 l 1
EndSplineSet
Validated: 1
EndChar

StartChar: hyphen
Encoding: 45 45 12
Width: 500
Flags: HW
LayerCount: 2
Fore
SplineSet
64 355 m 5
 436 355 l 5
 436 285 l 5
 64 285 l 5
 64 355 l 5
EndSplineSet
Validated: 1
EndChar

StartChar: period
Encoding: 46 46 13
Width: 278
Flags: HW
LayerCount: 2
Fore
SplineSet
139 -13 m 256
 121 -13 105 -7 92 6 c 128
 79 19 73 35 73 56 c 256
 73 77 79 94 92 107 c 128
 105 120 121 127 139 127 c 256
 157 127 173 120 186 107 c 128
 199 94 205 77 205 56 c 256
 205 35 199 19 186 6 c 128
 173 -7 157 -13 139 -13 c 256
EndSplineSet
Validated: 1
EndChar

StartChar: slash
Encoding: 47 47 14
Width: 392
Flags: HW
LayerCount: 2
Fore
SplineSet
311 793 m 1
 377 793 l 1
 78 -179 l 1
 11 -179 l 1
 311 793 l 1
EndSplineSet
Validated: 1
EndChar

StartChar: zero
Encoding: 48 48 15
Width: 555
Flags: HW
LayerCount: 2
Fore
SplineSet
278 -13 m 0
 208 -13 152 18 111 82 c 128
 70 146 49 242 49 369 c 256
 49 496 70 592 111 654 c 128
 152 716 208 747 278 747 c 0
 347 747 403 716 444 654 c 128
 485 592 506 496 506 369 c 256
 506 242 485 146 444 82 c 128
 403 18 347 -13 278 -13 c 0
278 60 m 0
 299 60 317 66 334 78 c 128
 351 90 366 109 378 134 c 128
 390 159 400 191 407 230 c 128
 414 269 417 315 417 369 c 0
 417 422 414 468 407 506 c 128
 400 544 390 576 378 601 c 128
 366 626 351 644 334 656 c 128
 317 668 299 673 278 673 c 256
 257 673 238 668 221 656 c 128
 204 644 188 626 176 601 c 128
 164 576 155 544 148 506 c 128
 141 468 138 422 138 369 c 0
 138 261 150 183 176 134 c 128
 202 85 236 60 278 60 c 0
EndSplineSet
Validated: 1
EndChar

StartChar: one
Encoding: 49 49 16
Width: 555
Flags: HW
LayerCount: 2
Fore
SplineSet
88 76 m 1
 251 76 l 1
 251 623 l 1
 121 623 l 1
 121 681 l 1
 154 687 182 694 206 703 c 128
 230 712 253 722 273 733 c 1
 343 733 l 1
 343 76 l 1
 490 76 l 1
 490 0 l 1
 88 0 l 1
 88 76 l 1
EndSplineSet
Validated: 1
EndChar

StartChar: two
Encoding: 50 50 17
Width: 555
Flags: HW
LayerCount: 2
Fore
SplineSet
44 54 m 1
 101 104 152 151 194 195 c 128
 236 239 270 280 298 319 c 128
 326 358 347 394 360 428 c 128
 373 462 380 496 380 527 c 0
 380 569 369 604 347 631 c 128
 325 658 291 672 245 672 c 0
 215 672 188 664 162 648 c 128
 136 632 113 611 93 587 c 1
 40 639 l 1
 70 672 102 698 136 718 c 128
 170 738 209 747 256 747 c 0
 289 747 318 742 344 732 c 128
 370 722 394 707 412 688 c 128
 430 669 444 646 454 619 c 128
 464 592 469 563 469 530 c 0
 469 493 462 457 448 420 c 128
 434 383 415 345 390 307 c 128
 365 269 335 231 300 192 c 128
 265 153 225 113 182 72 c 1
 201 73 221 74 242 76 c 128
 263 78 283 79 302 79 c 2
 505 79 l 1
 505 0 l 1
 44 0 l 1
 44 54 l 1
EndSplineSet
Validated: 1
EndChar

StartChar: three
Encoding: 51 51 18
Width: 555
Flags: HW
LayerCount: 2
Fore
SplineSet
264 -13 m 0
 235 -13 210 -10 186 -4 c 128
 162 2 141 9 122 18 c 128
 103 27 85 38 70 50 c 128
 55 62 41 74 29 87 c 1
 75 147 l 1
 96 124 122 105 151 88 c 128
 180 71 216 63 257 63 c 0
 279 63 299 66 317 72 c 128
 335 78 351 88 364 100 c 128
 377 112 388 125 395 142 c 128
 402 159 406 178 406 199 c 0
 406 221 402 241 394 259 c 128
 386 277 373 293 355 306 c 128
 337 319 313 329 284 336 c 128
 255 343 220 346 178 346 c 1
 178 416 l 1
 216 416 248 420 274 427 c 128
 300 434 320 444 336 456 c 128
 352 468 363 483 370 500 c 128
 377 517 381 536 381 556 c 0
 381 592 370 620 348 641 c 128
 326 662 295 673 257 674 c 0
 227 673 199 665 174 652 c 128
 149 639 126 622 105 601 c 1
 56 659 l 1
 84 684 115 705 148 722 c 128
 181 739 218 747 261 747 c 0
 292 747 320 743 346 735 c 128
 372 727 395 716 414 700 c 128
 433 684 447 665 458 642 c 128
 469 619 474 592 474 563 c 0
 474 518 462 481 438 452 c 128
 414 423 382 401 343 386 c 1
 343 382 l 1
 365 377 385 370 404 359 c 128
 423 348 440 335 454 319 c 128
 468 303 479 284 487 264 c 128
 495 244 499 221 499 196 c 0
 499 163 492 134 480 108 c 128
 468 82 451 60 430 42 c 128
 409 24 384 10 356 1 c 128
 328 -8 297 -13 264 -13 c 0
EndSplineSet
Validated: 1
EndChar

StartChar: four
Encoding: 52 52 19
Width: 555
Flags: HW
LayerCount: 2
Fore
SplineSet
523 202 m 1
 426 202 l 1
 426 0 l 1
 339 0 l 1
 339 202 l 1
 20 202 l 1
 20 262 l 1
 325 733 l 1
 426 733 l 1
 426 275 l 1
 523 275 l 1
 523 202 l 1
339 275 m 1
 339 500 l 2
 339 509 340 520 340 531 c 128
 340 542 340 554 341 566 c 128
 342 578 342 590 343 602 c 128
 344 614 344 624 345 633 c 1
 341 633 l 1
 332 615 322 597 312 579 c 128
 302 561 293 543 282 525 c 2
 115 275 l 1
 339 275 l 1
EndSplineSet
Validated: 1
EndChar

StartChar: five
Encoding: 53 53 20
Width: 555
Flags: HW
LayerCount: 2
Fore
SplineSet
261 -13 m 0
 232 -13 207 -10 184 -4 c 128
 161 2 139 9 120 18 c 128
 101 27 84 36 69 48 c 128
 54 60 40 72 28 84 c 1
 73 144 l 1
 84 133 95 124 107 114 c 128
 119 104 132 95 147 88 c 128
 162 81 178 75 195 70 c 128
 212 65 232 63 253 63 c 256
 274 63 295 67 314 75 c 128
 333 83 349 95 363 110 c 128
 377 125 388 143 396 164 c 128
 404 185 409 209 409 236 c 0
 409 289 396 330 368 359 c 128
 340 388 303 403 257 403 c 0
 232 403 212 399 194 392 c 128
 176 385 156 374 135 360 c 1
 86 390 l 1
 109 733 l 1
 466 733 l 1
 466 655 l 1
 189 655 l 1
 171 443 l 1
 187 452 204 459 221 464 c 128
 238 469 258 472 280 472 c 0
 311 472 339 467 366 458 c 128
 393 449 416 435 436 416 c 128
 456 397 472 372 484 343 c 128
 496 314 501 279 501 239 c 256
 501 199 494 163 481 132 c 128
 468 101 450 74 428 52 c 128
 406 30 380 15 351 4 c 128
 322 -7 292 -13 261 -13 c 0
EndSplineSet
Validated: 1
EndChar

StartChar: six
Encoding: 54 54 21
Width: 555
Flags: HW
LayerCount: 2
Fore
SplineSet
448 615 m 1
 433 632 416 646 395 656 c 128
 374 666 353 671 330 671 c 0
 305 671 282 666 259 656 c 128
 236 646 217 628 200 604 c 128
 183 580 168 549 158 510 c 128
 148 471 142 423 141 366 c 1
 164 394 190 416 220 432 c 128
 250 448 279 455 308 455 c 0
 371 455 420 436 456 398 c 128
 492 360 511 302 511 225 c 0
 511 190 505 157 494 128 c 128
 483 99 467 73 448 52 c 128
 429 31 407 15 382 4 c 128
 357 -7 330 -13 301 -13 c 0
 266 -13 233 -5 203 10 c 128
 173 25 148 48 126 78 c 128
 104 108 86 146 74 191 c 128
 62 236 56 289 56 350 c 0
 56 422 63 484 78 534 c 128
 93 584 113 624 138 656 c 128
 163 688 192 712 225 726 c 128
 258 740 292 747 327 747 c 0
 365 747 398 740 426 726 c 128
 454 712 478 693 498 672 c 1
 448 615 l 1
301 58 m 0
 318 58 335 62 350 70 c 128
 365 78 379 89 390 104 c 128
 401 119 410 136 416 157 c 128
 422 178 425 200 425 225 c 0
 425 275 414 315 392 344 c 128
 370 373 338 387 293 387 c 0
 270 387 244 380 218 366 c 128
 192 352 167 327 143 293 c 1
 148 216 165 158 192 118 c 128
 219 78 255 58 301 58 c 0
EndSplineSet
Validated: 1
EndChar

StartChar: seven
Encoding: 55 55 22
Width: 555
Flags: HW
LayerCount: 2
Fore
SplineSet
198 0 m 1
 201 69 208 134 216 192 c 128
 224 250 236 305 252 357 c 128
 268 409 288 460 313 508 c 128
 338 556 368 605 404 655 c 1
 49 655 l 1
 49 733 l 1
 508 733 l 1
 508 678 l 1
 465 623 431 570 404 519 c 128
 377 468 355 417 340 364 c 128
 325 311 314 255 307 196 c 128
 300 137 296 72 293 0 c 1
 198 0 l 1
EndSplineSet
Validated: 1
EndChar

StartChar: eight
Encoding: 56 56 23
Width: 555
Flags: HW
LayerCount: 2
Fore
SplineSet
279 -13 m 0
 245 -13 214 -8 186 2 c 128
 158 12 133 25 112 42 c 128
 91 59 74 80 62 104 c 128
 50 128 45 154 45 182 c 0
 45 207 48 229 56 250 c 128
 64 271 74 289 87 306 c 128
 100 323 114 339 130 352 c 128
 146 365 163 375 180 384 c 1
 180 389 l 1
 153 408 129 430 110 458 c 128
 91 486 81 519 81 558 c 0
 81 586 86 611 96 634 c 128
 106 657 120 677 138 693 c 128
 156 709 177 721 202 730 c 128
 227 739 253 744 282 744 c 0
 313 744 341 740 366 730 c 128
 391 720 412 707 429 690 c 128
 446 673 460 652 469 628 c 128
 478 604 483 579 483 551 c 0
 483 532 480 514 474 496 c 128
 468 478 460 461 450 446 c 128
 440 431 430 418 419 406 c 128
 408 394 396 383 385 374 c 1
 385 369 l 1
 401 360 417 350 432 338 c 128
 447 326 460 312 471 296 c 128
 482 280 491 263 498 244 c 128
 505 225 509 202 509 177 c 0
 509 150 503 125 492 102 c 128
 481 79 466 59 446 42 c 128
 426 25 402 12 374 2 c 128
 346 -8 314 -13 279 -13 c 0
329 398 m 1
 380 443 405 492 405 546 c 0
 405 564 402 581 396 597 c 128
 390 613 383 626 372 638 c 128
 361 650 348 659 333 666 c 128
 318 673 300 677 280 677 c 0
 246 677 218 666 196 644 c 128
 174 622 164 594 164 558 c 0
 164 536 169 516 178 500 c 128
 187 484 199 470 214 458 c 128
 229 446 247 434 267 425 c 128
 287 416 308 407 329 398 c 1
281 55 m 0
 323 55 357 67 383 90 c 128
 409 113 422 142 422 179 c 0
 422 204 416 225 406 242 c 128
 396 259 382 274 364 288 c 128
 346 302 325 314 302 324 c 128
 279 334 254 345 228 356 c 1
 198 337 174 313 156 285 c 128
 138 257 128 225 128 190 c 0
 128 171 132 153 140 136 c 128
 148 119 158 105 172 93 c 128
 186 81 201 72 220 65 c 128
 239 58 259 55 281 55 c 0
EndSplineSet
Validated: 1
EndChar

StartChar: nine
Encoding: 57 57 24
Width: 555
Flags: HW
LayerCount: 2
Fore
SplineSet
108 119 m 1
 123 102 142 88 164 78 c 128
 186 68 208 63 231 63 c 0
 255 63 278 68 299 79 c 128
 320 90 339 107 356 131 c 128
 373 155 386 187 396 226 c 128
 406 265 413 312 415 369 c 1
 393 341 368 318 338 302 c 128
 308 286 277 278 246 278 c 0
 215 278 188 282 163 292 c 128
 138 302 118 316 100 336 c 128
 82 356 68 380 58 409 c 128
 48 438 44 471 44 509 c 0
 44 544 50 577 61 606 c 128
 72 635 87 661 106 682 c 128
 125 703 148 719 173 730 c 128
 198 741 225 747 254 747 c 0
 289 747 322 740 352 725 c 128
 382 710 408 689 430 660 c 128
 452 631 470 594 482 550 c 128
 494 506 500 456 500 398 c 0
 500 324 493 260 478 208 c 128
 463 156 444 114 419 81 c 128
 394 48 366 25 334 10 c 128
 302 -5 269 -13 234 -13 c 0
 194 -13 160 -6 132 8 c 128
 104 22 79 41 58 62 c 1
 108 119 l 1
261 346 m 0
 286 346 312 353 338 368 c 128
 364 383 389 409 414 444 c 1
 409 520 393 577 366 616 c 128
 339 655 301 675 254 675 c 0
 237 675 220 671 205 663 c 128
 190 655 177 644 166 630 c 128
 155 616 146 598 140 578 c 128
 134 558 130 534 130 509 c 0
 130 459 140 419 162 390 c 128
 184 361 217 346 261 346 c 0
EndSplineSet
Validated: 1
EndChar

StartChar: colon
Encoding: 58 58 25
Width: 278
Flags: HW
LayerCount: 2
Fore
SplineSet
139 390 m 256
 121 390 105 397 92 410 c 128
 79 423 73 439 73 459 c 0
 73 480 79 497 92 510 c 128
 105 523 121 530 139 530 c 256
 157 530 173 523 186 510 c 128
 199 497 205 480 205 459 c 0
 205 439 199 423 186 410 c 128
 173 397 157 390 139 390 c 256
139 -13 m 256
 121 -13 105 -7 92 6 c 128
 79 19 73 35 73 56 c 256
 73 77 79 94 92 107 c 128
 105 120 121 127 139 127 c 256
 157 127 173 120 186 107 c 128
 199 94 205 77 205 56 c 256
 205 35 199 19 186 6 c 128
 173 -7 157 -13 139 -13 c 256
EndSplineSet
Validated: 1
EndChar

StartChar: semicolon
Encoding: 59 59 26
Width: 278
Flags: HW
LayerCount: 2
Fore
SplineSet
139 390 m 256
 121 390 105 397 92 410 c 128
 79 423 73 439 73 459 c 0
 73 480 79 497 92 510 c 128
 105 523 121 530 139 530 c 256
 157 530 173 523 186 510 c 128
 199 497 205 480 205 459 c 0
 205 439 199 423 186 410 c 128
 173 397 157 390 139 390 c 256
53 -136 m 1
 84 -123 109 -104 126 -81 c 128
 143 -58 152 -31 153 0 c 1
 150 -1 147 -1 142 -1 c 0
 125 -1 110 4 96 15 c 128
 82 26 75 42 75 63 c 0
 75 82 82 98 96 110 c 128
 110 122 125 127 144 127 c 0
 168 127 186 117 200 98 c 128
 214 79 221 53 221 19 c 0
 221 -29 208 -71 182 -107 c 128
 156 -143 120 -171 75 -190 c 1
 53 -136 l 1
EndSplineSet
Validated: 1
EndChar

StartChar: less
Encoding: 60 60 27
Width: 555
Flags: HW
LayerCount: 2
Fore
SplineSet
38 334 m 1
 38 407 l 1
 517 595 l 1
 517 516 l 1
 131 373 l 1
 131 369 l 1
 517 226 l 1
 517 146 l 1
 38 334 l 1
EndSplineSet
Validated: 1
EndChar

StartChar: equal
Encoding: 61 61 28
Width: 800
Flags: HW
LayerCount: 2
Fore
SplineSet
85 499 m 5
 715 499 l 5
 715 435 l 5
 85 435 l 5
 85 499 l 5
85 302 m 5
 715 302 l 5
 715 238 l 5
 85 238 l 5
 85 302 l 5
EndSplineSet
Validated: 1
EndChar

StartChar: greater
Encoding: 62 62 29
Width: 555
Flags: HW
LayerCount: 2
Fore
SplineSet
38 226 m 1
 424 369 l 1
 424 373 l 1
 38 516 l 1
 38 595 l 1
 517 407 l 1
 517 334 l 1
 38 146 l 1
 38 226 l 1
EndSplineSet
Validated: 1
EndChar

StartChar: question
Encoding: 63 63 30
Width: 474
Flags: HW
LayerCount: 2
Fore
SplineSet
178 221 m 5
 177 231 176 241 176 251 c 4
 176 269 178 285 182 300 c 132
 188 323 197 344 208 364 c 132
 219 384 232 403 246 420 c 132
 260 437 274 454 287 471 c 132
 300 488 310 505 319 522 c 132
 328 539 332 558 332 578 c 4
 332 608 323 633 305 654 c 132
 287 675 260 686 224 686 c 4
 199 686 176 680 154 669 c 132
 132 658 112 642 95 622 c 5
 43 670 l 5
 66 697 94 719 126 736 c 132
 158 753 193 762 234 762 c 4
 291 762 336 746 370 714 c 132
 404 682 421 639 421 584 c 4
 421 559 417 537 408 517 c 132
 399 497 389 478 376 460 c 132
 363 442 349 423 334 406 c 132
 319 389 305 371 293 352 c 132
 281 333 272 313 265 292 c 132
 260 277 258 261 258 244 c 4
 258 237 258 229 259 221 c 5
 178 221 l 5
221 -13 m 4
 203 -13 187 -7 174 6 c 132
 161 19 155 35 155 56 c 260
 155 77 161 94 174 107 c 132
 187 120 203 127 221 127 c 4
 240 127 255 120 268 107 c 132
 281 94 288 77 288 56 c 260
 288 35 281 19 268 6 c 132
 255 -7 240 -13 221 -13 c 4
EndSplineSet
Validated: 1
EndChar

StartChar: at
Encoding: 64 64 31
Width: 946
Flags: HW
LayerCount: 2
Fore
SplineSet
450 -173 m 4
 395 -173 344 -164 296 -147 c 132
 248 -130 206 -104 171 -70 c 132
 136 -36 108 5 87 55 c 132
 66 105 56 162 56 227 c 4
 56 302 69 369 94 430 c 132
 119 491 153 543 196 586 c 132
 239 629 288 662 344 686 c 132
 400 710 460 722 522 722 c 4
 578 722 629 713 674 695 c 132
 719 677 758 652 790 620 c 132
 822 588 847 548 864 503 c 132
 881 458 889 407 889 352 c 4
 889 303 882 261 868 224 c 132
 854 187 838 155 816 130 c 132
 794 105 770 87 744 74 c 132
 718 61 691 55 666 55 c 4
 635 55 609 62 588 76 c 132
 567 90 554 111 551 140 c 5
 548 140 l 5
 530 119 509 101 485 86 c 132
 461 71 437 63 412 63 c 4
 374 63 342 77 316 104 c 132
 290 131 278 171 278 222 c 4
 278 251 283 281 293 312 c 132
 303 343 317 371 336 396 c 132
 355 421 377 441 404 457 c 132
 431 473 460 481 493 481 c 4
 532 481 562 463 582 426 c 5
 584 426 l 5
 597 472 l 5
 657 472 l 5
 613 249 l 6
 607 226 605 206 605 189 c 4
 605 173 607 160 612 150 c 132
 622 129 643 118 674 118 c 4
 692 118 710 124 728 134 c 132
 746 144 761 158 776 178 c 132
 791 198 803 222 812 251 c 132
 821 280 825 312 825 348 c 4
 825 393 818 436 805 474 c 132
 792 512 772 544 746 572 c 132
 720 600 688 622 649 638 c 132
 610 654 566 661 515 661 c 4
 465 661 417 650 370 630 c 132
 323 610 282 582 245 544 c 132
 208 506 179 461 157 408 c 132
 135 355 124 295 124 230 c 4
 124 175 132 126 149 84 c 132
 166 42 188 7 218 -22 c 132
 248 -51 283 -74 324 -89 c 132
 365 -104 409 -112 456 -112 c 4
 490 -112 523 -107 554 -98 c 132
 585 -89 613 -77 638 -62 c 5
 662 -116 l 5
 629 -135 595 -150 560 -159 c 132
 525 -168 489 -173 450 -173 c 4
430 126 m 4
 445 126 461 132 478 142 c 132
 495 152 514 169 533 192 c 5
 565 370 l 5
 554 387 543 399 532 406 c 132
 521 413 508 417 493 417 c 4
 471 417 452 411 434 399 c 132
 416 387 401 372 389 354 c 132
 377 336 368 314 361 292 c 132
 354 270 351 248 351 227 c 4
 351 191 359 166 374 150 c 132
 389 134 407 126 430 126 c 4
EndSplineSet
Validated: 1
EndChar

StartChar: A
Encoding: 65 65 32
Width: 607
Flags: HW
LayerCount: 2
Fore
SplineSet
436 224 m 1
 168 224 l 1
 97 0 l 1
 3 0 l 1
 252 733 l 1
 355 733 l 1
 604 0 l 1
 506 0 l 1
 436 224 l 1
413 298 m 1
 378 410 l 2
 365 452 352 494 340 534 c 128
 328 574 316 615 304 658 c 1
 300 658 l 1
 289 615 277 573 265 533 c 128
 253 493 240 452 227 410 c 2
 191 298 l 1
 413 298 l 1
EndSplineSet
Validated: 1
EndChar

StartChar: B
Encoding: 66 66 33
Width: 657
Flags: HW
LayerCount: 2
Fore
SplineSet
100 733 m 1
 318 733 l 2
 355 733 389 730 420 723 c 128
 451 716 478 706 500 692 c 128
 522 678 540 659 552 636 c 128
 564 613 570 586 570 554 c 0
 570 517 561 485 542 456 c 128
 523 427 497 406 462 395 c 1
 462 390 l 1
 506 381 542 363 570 334 c 128
 598 305 612 265 612 215 c 0
 612 179 606 147 592 120 c 128
 578 93 558 72 534 54 c 128
 510 36 481 23 447 14 c 128
 413 5 375 0 334 0 c 2
 100 0 l 1
 100 733 l 1
302 421 m 2
 365 421 411 432 438 454 c 128
 465 476 479 505 479 542 c 0
 479 585 465 616 436 634 c 128
 407 652 363 660 306 660 c 2
 193 660 l 1
 193 421 l 1
 302 421 l 2
321 74 m 2
 384 74 433 85 468 108 c 128
 503 131 521 168 521 218 c 0
 521 264 504 297 470 318 c 128
 436 339 386 350 321 350 c 2
 193 350 l 1
 193 74 l 1
 321 74 l 2
EndSplineSet
Validated: 1
EndChar

StartChar: C
Encoding: 67 67 34
Width: 638
Flags: HW
LayerCount: 2
Fore
SplineSet
377 -13 m 0
 332 -13 289 -4 250 13 c 128
 211 30 178 56 150 88 c 128
 122 120 98 159 82 206 c 128
 66 253 58 307 58 366 c 256
 58 425 66 479 82 526 c 128
 98 573 121 613 150 646 c 128
 179 679 214 704 254 721 c 128
 294 738 336 747 383 747 c 0
 405 747 426 745 446 740 c 128
 466 735 485 728 502 719 c 128
 519 710 534 701 548 690 c 128
 562 679 573 668 584 656 c 1
 534 596 l 1
 515 617 492 633 468 646 c 128
 444 659 416 666 384 666 c 0
 349 666 318 660 290 646 c 128
 262 632 236 612 216 586 c 128
 196 560 181 530 170 493 c 128
 159 456 153 415 153 369 c 256
 153 323 158 281 169 244 c 128
 180 207 194 175 214 149 c 128
 234 123 258 103 286 89 c 128
 314 75 346 68 381 68 c 0
 416 68 448 75 475 90 c 128
 502 105 528 125 551 150 c 1
 602 92 l 1
 573 58 540 32 504 14 c 128
 468 -4 425 -13 377 -13 c 0
EndSplineSet
Validated: 1
EndChar

StartChar: D
Encoding: 68 68 35
Width: 687
Flags: HW
LayerCount: 2
Fore
SplineSet
100 733 m 1
 284 733 l 2
 397 733 483 702 542 639 c 128
 601 576 630 486 630 369 c 0
 630 311 623 260 608 214 c 128
 593 168 571 130 542 98 c 128
 513 66 476 42 434 25 c 128
 392 8 343 0 288 0 c 2
 100 0 l 1
 100 733 l 1
276 76 m 2
 363 76 427 102 470 153 c 128
 513 204 534 276 534 369 c 0
 534 462 512 534 470 584 c 128
 428 634 363 658 276 658 c 2
 193 658 l 1
 193 76 l 1
 276 76 l 2
EndSplineSet
Validated: 1
EndChar

StartChar: E
Encoding: 69 69 36
Width: 588
Flags: HW
LayerCount: 2
Fore
SplineSet
100 733 m 1
 523 733 l 1
 523 655 l 1
 193 655 l 1
 193 425 l 1
 471 425 l 1
 471 346 l 1
 193 346 l 1
 193 79 l 1
 534 79 l 1
 534 0 l 1
 100 0 l 1
 100 733 l 1
EndSplineSet
Validated: 1
EndChar

StartChar: F
Encoding: 70 70 37
Width: 552
Flags: HW
LayerCount: 2
Fore
SplineSet
100 733 m 1
 523 733 l 1
 523 655 l 1
 193 655 l 1
 193 407 l 1
 473 407 l 1
 473 329 l 1
 193 329 l 1
 193 0 l 1
 100 0 l 1
 100 733 l 1
EndSplineSet
Validated: 1
EndChar

StartChar: G
Encoding: 71 71 38
Width: 689
Flags: HW
LayerCount: 2
Fore
SplineSet
388 -13 m 0
 340 -13 296 -4 255 13 c 128
 214 30 179 56 150 88 c 128
 121 120 98 159 82 206 c 128
 66 253 58 307 58 366 c 256
 58 425 66 479 83 526 c 128
 100 573 123 613 153 646 c 128
 183 679 219 704 260 721 c 128
 301 738 345 747 394 747 c 0
 419 747 443 744 464 739 c 128
 485 734 505 726 522 718 c 128
 539 710 554 701 568 690 c 128
 582 679 594 667 605 656 c 1
 555 596 l 1
 536 615 515 632 490 646 c 128
 465 660 434 666 396 666 c 0
 359 666 326 660 296 646 c 128
 266 632 241 612 220 586 c 128
 199 560 182 530 170 493 c 128
 158 456 153 415 153 369 c 256
 153 323 158 281 169 244 c 128
 180 207 195 175 216 149 c 128
 237 123 262 103 292 89 c 128
 322 75 358 68 397 68 c 0
 424 68 448 72 472 80 c 128
 496 88 515 98 530 111 c 1
 530 303 l 1
 375 303 l 1
 375 380 l 1
 615 380 l 1
 615 72 l 1
 592 47 561 27 522 11 c 128
 483 -5 438 -13 388 -13 c 0
EndSplineSet
Validated: 1
EndChar

StartChar: H
Encoding: 72 72 39
Width: 728
Flags: HW
LayerCount: 2
Fore
SplineSet
100 733 m 1
 193 733 l 1
 193 426 l 1
 535 426 l 1
 535 733 l 1
 627 733 l 1
 627 0 l 1
 535 0 l 1
 535 346 l 1
 193 346 l 1
 193 0 l 1
 100 0 l 1
 100 733 l 1
EndSplineSet
Validated: 1
EndChar

StartChar: I
Encoding: 73 73 40
Width: 293
Flags: HW
LayerCount: 2
Fore
SplineSet
100 733 m 1
 193 733 l 1
 193 0 l 1
 100 0 l 1
 100 733 l 1
EndSplineSet
Validated: 1
EndChar

StartChar: J
Encoding: 74 74 41
Width: 536
Flags: HW
LayerCount: 2
Fore
SplineSet
237 -13 m 0
 190 -13 150 -4 117 16 c 128
 84 36 56 65 35 103 c 1
 101 150 l 1
 118 121 136 100 157 87 c 128
 178 74 201 68 228 68 c 0
 268 68 298 80 317 104 c 128
 336 128 346 168 346 224 c 2
 346 733 l 1
 438 733 l 1
 438 215 l 2
 438 184 434 154 426 126 c 128
 418 98 407 75 391 54 c 128
 375 33 354 17 329 5 c 128
 304 -7 273 -13 237 -13 c 0
EndSplineSet
Validated: 1
EndChar

StartChar: K
Encoding: 75 75 42
Width: 646
Flags: HW
LayerCount: 2
Fore
SplineSet
100 733 m 1
 193 733 l 1
 193 365 l 1
 196 365 l 1
 502 733 l 1
 606 733 l 1
 377 454 l 1
 642 0 l 1
 538 0 l 1
 319 382 l 1
 193 232 l 1
 193 0 l 1
 100 0 l 1
 100 733 l 1
EndSplineSet
Validated: 1
EndChar

StartChar: L
Encoding: 76 76 43
Width: 542
Flags: HW
LayerCount: 2
Fore
SplineSet
100 733 m 1
 193 733 l 1
 193 79 l 1
 513 79 l 1
 513 0 l 1
 100 0 l 1
 100 733 l 1
EndSplineSet
Validated: 1
EndChar

StartChar: M
Encoding: 77 77 44
Width: 812
Flags: HW
LayerCount: 2
Fore
SplineSet
100 733 m 1
 212 733 l 1
 353 341 l 2
 362 316 370 290 378 264 c 128
 386 238 396 213 405 188 c 1
 410 188 l 1
 412 195 414 202 416 208 c 128
 418 214 420 220 423 226 c 2
 447 303 l 2
 452 314 456 327 460 341 c 2
 600 733 l 1
 712 733 l 1
 712 0 l 1
 625 0 l 1
 625 406 l 2
 625 422 625 440 626 458 c 128
 627 476 628 495 629 514 c 128
 630 533 632 551 633 570 c 128
 634 589 636 606 637 622 c 1
 633 622 l 1
 575 455 l 1
 436 74 l 1
 374 74 l 1
 235 455 l 1
 177 622 l 1
 173 622 l 1
 174 606 175 589 176 570 c 128
 177 551 179 533 180 514 c 128
 181 495 182 476 183 458 c 128
 184 440 184 422 184 406 c 2
 184 0 l 1
 100 0 l 1
 100 733 l 1
EndSplineSet
Validated: 1
EndChar

StartChar: N
Encoding: 78 78 45
Width: 722
Flags: HW
LayerCount: 2
Fore
SplineSet
100 733 m 1
 196 733 l 1
 463 271 l 1
 541 120 l 1
 546 120 l 1
 543 157 541 196 538 236 c 128
 535 276 534 314 534 352 c 2
 534 733 l 1
 622 733 l 1
 622 0 l 1
 527 0 l 1
 260 463 l 1
 181 614 l 1
 177 614 l 1
 179 577 181 538 184 500 c 128
 187 462 188 424 188 385 c 2
 188 0 l 1
 100 0 l 1
 100 733 l 1
EndSplineSet
Validated: 1
EndChar

StartChar: O
Encoding: 79 79 46
Width: 742
Flags: HW
LayerCount: 2
Fore
SplineSet
371 -13 m 256
 325 -13 282 -4 244 14 c 128
 206 32 174 57 146 90 c 128
 118 123 96 163 81 210 c 128
 66 257 58 310 58 369 c 256
 58 428 66 480 81 527 c 128
 96 574 118 613 146 646 c 128
 174 679 206 704 244 721 c 128
 282 738 325 747 371 747 c 256
 417 747 460 738 498 721 c 128
 536 704 568 679 596 646 c 128
 624 613 646 574 661 527 c 128
 676 480 684 428 684 369 c 256
 684 310 676 257 661 210 c 128
 646 163 624 123 596 90 c 128
 568 57 536 32 498 14 c 128
 460 -4 417 -13 371 -13 c 256
371 68 m 256
 404 68 433 76 460 90 c 128
 487 104 511 124 530 150 c 128
 549 176 564 207 574 244 c 128
 584 281 589 323 589 369 c 256
 589 415 584 456 574 493 c 128
 564 530 549 560 530 586 c 128
 511 612 487 632 460 646 c 128
 433 660 404 666 371 666 c 256
 338 666 309 660 282 646 c 128
 255 632 231 612 212 586 c 128
 193 560 178 530 168 493 c 128
 158 456 153 415 153 369 c 256
 153 323 158 281 168 244 c 128
 178 207 193 176 212 150 c 128
 231 124 255 104 282 90 c 128
 309 76 338 68 371 68 c 256
EndSplineSet
Validated: 1
EndChar

StartChar: P
Encoding: 80 80 47
Width: 632
Flags: HW
LayerCount: 2
Fore
SplineSet
100 733 m 1
 309 733 l 2
 350 733 388 729 422 722 c 128
 456 715 484 703 508 686 c 128
 532 669 551 646 564 619 c 128
 577 592 584 558 584 518 c 0
 584 479 577 446 564 417 c 128
 551 388 533 365 509 346 c 128
 485 327 457 313 424 304 c 128
 391 295 354 291 314 291 c 2
 193 291 l 1
 193 0 l 1
 100 0 l 1
 100 733 l 1
302 366 m 2
 367 366 415 378 446 402 c 128
 477 426 492 465 492 518 c 0
 492 545 488 566 480 584 c 128
 472 602 460 617 444 628 c 128
 428 639 406 646 382 651 c 128
 358 656 330 658 298 658 c 2
 193 658 l 1
 193 366 l 1
 302 366 l 2
EndSplineSet
Validated: 1
EndChar

StartChar: Q
Encoding: 81 81 48
Width: 742
Flags: HW
LayerCount: 2
Fore
SplineSet
700 -168 m 1
 689 -172 674 -176 656 -179 c 128
 638 -182 617 -184 595 -184 c 0
 561 -184 530 -180 502 -171 c 128
 474 -162 448 -150 425 -135 c 128
 402 -120 383 -101 366 -80 c 128
 349 -59 336 -35 326 -10 c 1
 286 -5 249 8 216 28 c 128
 183 48 155 74 132 107 c 128
 109 140 91 178 78 222 c 128
 65 266 58 315 58 369 c 0
 58 428 66 480 81 527 c 128
 96 574 118 613 146 646 c 128
 174 679 206 704 244 721 c 128
 282 738 325 747 371 747 c 256
 417 747 460 738 498 721 c 128
 536 704 568 679 596 646 c 128
 624 613 646 574 661 527 c 128
 676 480 684 428 684 369 c 0
 684 316 678 268 666 225 c 128
 654 182 636 144 613 111 c 128
 590 78 563 52 531 32 c 128
 499 12 464 -2 425 -9 c 1
 442 -42 466 -66 498 -82 c 128
 530 -98 565 -107 605 -107 c 0
 622 -107 636 -106 649 -104 c 128
 662 -102 673 -99 682 -96 c 1
 700 -168 l 1
153 369 m 0
 153 322 158 280 168 242 c 128
 178 204 193 173 212 146 c 128
 231 119 255 98 282 84 c 128
 309 70 338 63 371 63 c 256
 404 63 433 70 460 84 c 128
 487 98 511 119 530 146 c 128
 549 173 564 204 574 242 c 128
 584 280 589 322 589 369 c 0
 589 415 584 456 574 493 c 128
 564 530 549 560 530 586 c 128
 511 612 487 632 460 646 c 128
 433 660 404 666 371 666 c 256
 338 666 309 660 282 646 c 128
 255 632 231 612 212 586 c 128
 193 560 178 530 168 493 c 128
 158 456 153 415 153 369 c 0
EndSplineSet
Validated: 1
EndChar

StartChar: R
Encoding: 82 82 49
Width: 635
Flags: HW
LayerCount: 2
Fore
SplineSet
503 0 m 1
 325 311 l 1
 193 311 l 1
 193 0 l 1
 100 0 l 1
 100 733 l 1
 330 733 l 2
 367 733 402 729 433 722 c 128
 464 715 491 704 514 688 c 128
 537 672 554 650 567 624 c 128
 580 598 586 565 586 527 c 0
 586 470 570 424 540 390 c 128
 510 356 470 333 420 321 c 1
 608 0 l 1
 503 0 l 1
193 386 m 1
 316 386 l 2
 374 386 418 397 448 420 c 128
 478 443 494 479 494 527 c 0
 494 576 478 610 448 629 c 128
 418 648 374 658 316 658 c 2
 193 658 l 1
 193 386 l 1
EndSplineSet
Validated: 1
EndChar

StartChar: S
Encoding: 83 83 50
Width: 597
Flags: HW
LayerCount: 2
Fore
SplineSet
304 -13 m 0
 252 -13 204 -3 160 16 c 128
 116 35 79 62 47 96 c 1
 102 159 l 1
 129 131 160 108 195 92 c 128
 230 76 267 68 305 68 c 0
 353 68 391 79 418 101 c 128
 445 123 459 152 459 188 c 0
 459 207 456 223 450 236 c 128
 444 249 435 260 424 270 c 128
 413 280 400 288 385 295 c 128
 370 302 354 310 337 318 c 2
 231 364 l 2
 214 371 198 380 180 390 c 128
 162 400 146 413 131 428 c 128
 116 443 105 462 96 482 c 128
 87 502 82 525 82 552 c 0
 82 580 88 606 100 630 c 128
 112 654 128 675 148 692 c 128
 168 709 192 722 220 732 c 128
 248 742 280 747 313 747 c 0
 357 747 397 739 434 722 c 128
 471 705 503 683 529 656 c 1
 480 597 l 1
 457 618 432 636 405 648 c 128
 378 660 347 666 313 666 c 0
 271 666 238 656 213 637 c 128
 188 618 176 591 176 558 c 0
 176 540 180 525 187 512 c 128
 194 499 204 488 215 479 c 128
 226 470 239 462 254 455 c 128
 269 448 283 442 297 436 c 2
 402 391 l 2
 423 382 444 371 462 360 c 128
 480 349 496 335 510 320 c 128
 524 305 534 286 542 266 c 128
 550 246 553 222 553 195 c 0
 553 166 548 139 536 114 c 128
 524 89 507 67 486 48 c 128
 465 29 439 14 408 3 c 128
 377 -8 342 -13 304 -13 c 0
EndSplineSet
Validated: 1
EndChar

StartChar: T
Encoding: 84 84 51
Width: 599
Flags: HW
LayerCount: 2
Fore
SplineSet
253 655 m 1
 31 655 l 1
 31 733 l 1
 568 733 l 1
 568 655 l 1
 346 655 l 1
 346 0 l 1
 253 0 l 1
 253 655 l 1
EndSplineSet
Validated: 1
EndChar

StartChar: U
Encoding: 85 85 52
Width: 721
Flags: HW
LayerCount: 2
Fore
SplineSet
360 -13 m 256
 323 -13 288 -8 256 3 c 128
 224 14 196 31 172 56 c 128
 148 81 130 114 117 154 c 128
 104 194 97 244 97 303 c 2
 97 733 l 1
 190 733 l 1
 190 300 l 2
 190 256 194 220 203 190 c 128
 212 160 224 136 239 118 c 128
 254 100 272 88 293 80 c 128
 314 72 336 68 360 68 c 0
 385 68 408 72 429 80 c 128
 450 88 468 100 484 118 c 128
 500 136 513 160 522 190 c 128
 531 220 535 256 535 300 c 2
 535 733 l 1
 624 733 l 1
 624 303 l 2
 624 244 617 194 604 154 c 128
 591 114 572 81 548 56 c 128
 524 31 496 14 464 3 c 128
 432 -8 397 -13 360 -13 c 256
EndSplineSet
Validated: 1
EndChar

StartChar: V
Encoding: 86 86 53
Width: 575
Flags: HW
LayerCount: 2
Fore
SplineSet
1 733 m 1
 98 733 l 1
 217 336 l 2
 224 315 230 294 236 274 c 128
 242 254 247 234 252 215 c 128
 257 196 263 176 269 156 c 128
 275 136 281 115 288 94 c 1
 292 94 l 1
 299 115 305 136 311 156 c 128
 317 176 323 196 328 215 c 128
 333 234 338 254 344 274 c 128
 350 294 356 315 363 336 c 2
 481 733 l 1
 575 733 l 1
 342 0 l 1
 235 0 l 1
 1 733 l 1
EndSplineSet
Validated: 1
EndChar

StartChar: W
Encoding: 87 87 54
Width: 878
Flags: HW
LayerCount: 2
Fore
SplineSet
25 733 m 1
 121 733 l 1
 198 334 l 2
 200 324 202 314 204 304 c 128
 206 294 207 285 209 275 c 2
 230 156 l 2
 232 147 234 137 236 127 c 128
 238 117 240 107 241 97 c 1
 245 97 l 1
 254 137 262 177 271 216 c 128
 280 255 289 294 298 334 c 2
 399 733 l 1
 483 733 l 1
 586 334 l 2
 595 295 604 255 612 216 c 128
 620 177 629 137 638 97 c 1
 643 97 l 1
 657 177 671 256 685 334 c 2
 762 733 l 1
 851 733 l 1
 699 0 l 1
 588 0 l 1
 477 442 l 2
 470 471 464 499 458 526 c 128
 452 553 447 581 441 609 c 1
 437 609 l 1
 431 581 424 553 418 526 c 128
 412 499 406 471 400 442 c 2
 291 0 l 1
 181 0 l 1
 25 733 l 1
EndSplineSet
Validated: 1
EndChar

StartChar: X
Encoding: 88 88 55
Width: 573
Flags: HW
LayerCount: 2
Fore
SplineSet
231 379 m 1
 31 733 l 1
 133 733 l 1
 233 546 l 2
 242 529 251 512 260 496 c 128
 269 480 279 460 291 439 c 1
 295 439 l 1
 305 460 314 480 322 496 c 128
 330 512 338 529 347 546 c 2
 445 733 l 1
 542 733 l 1
 342 374 l 1
 556 0 l 1
 454 0 l 1
 346 198 l 2
 337 216 326 235 316 254 c 128
 306 273 295 294 283 316 c 1
 279 316 l 1
 258 273 239 233 220 198 c 2
 114 0 l 1
 17 0 l 1
 231 379 l 1
EndSplineSet
Validated: 1
EndChar

StartChar: Y
Encoding: 89 89 56
Width: 531
Flags: HW
LayerCount: 2
Fore
SplineSet
219 285 m 1
 -1 733 l 1
 98 733 l 1
 192 526 l 2
 204 499 216 472 227 446 c 128
 238 420 251 394 264 366 c 1
 268 366 l 1
 281 394 294 420 306 446 c 128
 318 472 330 499 341 526 c 2
 436 733 l 1
 532 733 l 1
 312 285 l 1
 312 0 l 1
 219 0 l 1
 219 285 l 1
EndSplineSet
Validated: 1
EndChar

StartChar: Z
Encoding: 90 90 57
Width: 603
Flags: HW
LayerCount: 2
Fore
SplineSet
50 55 m 1
 437 655 l 1
 85 655 l 1
 85 733 l 1
 551 733 l 1
 551 679 l 1
 164 79 l 1
 555 79 l 1
 555 0 l 1
 50 0 l 1
 50 55 l 1
EndSplineSet
Validated: 1
EndChar

StartChar: bracketleft
Encoding: 91 91 58
Width: 338
Flags: HW
LayerCount: 2
Fore
SplineSet
105 791 m 1
 304 791 l 1
 304 740 l 1
 174 740 l 1
 174 -118 l 1
 304 -118 l 1
 304 -170 l 1
 105 -170 l 1
 105 791 l 1
EndSplineSet
Validated: 1
EndChar

StartChar: backslash
Encoding: 92 92 59
Width: 392
Flags: HW
LayerCount: 2
Fore
SplineSet
15 793 m 1
 81 793 l 1
 380 -179 l 1
 314 -179 l 1
 15 793 l 1
EndSplineSet
Validated: 1
EndChar

StartChar: bracketright
Encoding: 93 93 60
Width: 338
Flags: HW
LayerCount: 2
Fore
SplineSet
34 -118 m 1
 164 -118 l 1
 164 740 l 1
 34 740 l 1
 34 791 l 1
 233 791 l 1
 233 -170 l 1
 34 -170 l 1
 34 -118 l 1
EndSplineSet
Validated: 1
EndChar

StartChar: asciicircum
Encoding: 94 94 61
Width: 555
Flags: HW
LayerCount: 2
Fore
SplineSet
237 749 m 1
 318 749 l 1
 488 317 l 1
 408 317 l 1
 334 515 l 1
 280 664 l 1
 275 664 l 1
 147 317 l 1
 67 317 l 1
 237 749 l 1
EndSplineSet
Validated: 1
EndChar

StartChar: underscore
Encoding: 95 95 62
Width: 559
Flags: HW
LayerCount: 2
Fore
SplineSet
13 -79 m 1
 545 -79 l 1
 545 -140 l 1
 13 -140 l 1
 13 -79 l 1
EndSplineSet
Validated: 1
EndChar

StartChar: grave
Encoding: 96 96 63
Width: 606
Flags: HW
LayerCount: 2
Fore
SplineSet
144 811 m 1
 208 872 l 1
 366 686 l 1
 319 641 l 1
 144 811 l 1
EndSplineSet
Validated: 1
EndChar

StartChar: a
Encoding: 97 97 64
Width: 564
Flags: HW
LayerCount: 2
Fore
SplineSet
217 -13 m 0
 194 -13 173 -9 154 -2 c 128
 135 5 118 15 104 28 c 128
 90 41 78 57 70 76 c 128
 62 95 58 116 58 141 c 0
 58 170 65 196 78 218 c 128
 91 240 111 260 138 277 c 128
 165 294 200 307 242 318 c 128
 284 329 334 337 392 344 c 1
 392 361 390 378 387 395 c 128
 384 412 378 426 370 439 c 128
 362 452 350 462 335 470 c 128
 320 478 302 481 280 481 c 0
 248 481 218 475 190 463 c 128
 162 451 138 438 117 423 c 1
 81 486 l 1
 94 494 108 502 124 510 c 128
 140 518 156 527 174 534 c 128
 192 541 212 546 232 550 c 128
 252 554 273 557 295 557 c 0
 328 557 356 552 380 541 c 128
 404 530 423 515 438 496 c 128
 453 477 465 454 472 426 c 128
 479 398 483 367 483 334 c 2
 483 0 l 1
 408 0 l 1
 400 65 l 1
 397 65 l 1
 371 44 343 25 313 10 c 128
 283 -5 251 -13 217 -13 c 0
243 60 m 0
 270 60 295 66 318 78 c 128
 341 90 365 109 392 132 c 1
 392 284 l 1
 346 279 307 272 276 264 c 128
 245 256 220 246 201 234 c 128
 182 222 168 208 160 194 c 128
 152 180 147 164 147 147 c 0
 147 116 156 93 174 80 c 128
 192 67 216 60 243 60 c 0
EndSplineSet
Validated: 1
EndChar

StartChar: b
Encoding: 98 98 65
Width: 618
Flags: HW
LayerCount: 2
Fore
SplineSet
331 -13 m 0
 306 -13 279 -7 252 5 c 128
 225 17 200 34 176 56 c 1
 173 56 l 1
 165 0 l 1
 92 0 l 1
 92 796 l 1
 183 796 l 1
 183 578 l 1
 180 480 l 1
 205 501 232 519 261 534 c 128
 290 549 320 557 350 557 c 0
 385 557 417 550 444 537 c 128
 471 524 494 505 512 481 c 128
 530 457 544 428 553 394 c 128
 562 360 567 322 567 281 c 0
 567 234 561 193 548 156 c 128
 535 119 518 89 496 64 c 128
 474 39 448 19 420 6 c 128
 392 -7 362 -13 331 -13 c 0
316 63 m 0
 339 63 359 68 378 78 c 128
 397 88 414 102 428 120 c 128
 442 138 452 161 460 188 c 128
 468 215 472 245 472 279 c 0
 472 309 469 336 464 361 c 128
 459 386 450 406 439 424 c 128
 428 442 413 456 395 466 c 128
 377 476 355 480 329 480 c 0
 306 480 282 474 258 461 c 128
 234 448 209 430 183 405 c 1
 183 120 l 1
 207 99 231 84 254 76 c 128
 277 68 298 63 316 63 c 0
EndSplineSet
Validated: 1
EndChar

StartChar: c
Encoding: 99 99 66
Width: 509
Flags: HW
LayerCount: 2
Fore
SplineSet
306 -13 m 0
 270 -13 237 -7 206 6 c 128
 175 19 147 38 124 62 c 128
 101 86 83 116 70 151 c 128
 57 186 51 226 51 271 c 0
 51 316 58 357 72 392 c 128
 86 427 106 457 130 482 c 128
 154 507 182 525 214 538 c 128
 246 551 278 557 313 557 c 0
 349 557 380 551 405 538 c 128
 430 525 453 510 472 493 c 1
 425 432 l 1
 409 447 392 459 375 468 c 128
 358 477 338 481 316 481 c 0
 291 481 269 476 248 466 c 128
 227 456 209 442 194 423 c 128
 179 404 168 382 159 356 c 128
 150 330 146 302 146 271 c 256
 146 240 150 212 158 186 c 128
 166 160 177 138 192 120 c 128
 207 102 225 88 246 78 c 128
 267 68 289 63 314 63 c 0
 339 63 363 68 384 78 c 128
 405 88 425 102 442 117 c 1
 481 56 l 1
 457 34 430 17 400 5 c 128
 370 -7 339 -13 306 -13 c 0
EndSplineSet
Validated: 1
EndChar

StartChar: d
Encoding: 100 100 67
Width: 620
Flags: HW
LayerCount: 2
Fore
SplineSet
277 -13 m 0
 243 -13 212 -7 184 6 c 128
 156 19 133 37 114 61 c 128
 95 85 80 115 69 150 c 128
 58 185 53 226 53 271 c 0
 53 315 59 355 72 390 c 128
 85 425 103 455 124 480 c 128
 145 505 170 524 199 537 c 128
 228 550 257 557 288 557 c 0
 320 557 347 551 370 540 c 128
 393 529 417 513 441 493 c 1
 436 587 l 1
 436 796 l 1
 527 796 l 1
 527 0 l 1
 453 0 l 1
 444 64 l 1
 442 64 l 1
 421 43 396 25 368 10 c 128
 340 -5 310 -13 277 -13 c 0
297 63 m 0
 322 63 346 70 368 82 c 128
 390 94 413 113 436 138 c 1
 436 423 l 1
 413 444 391 458 370 467 c 128
 349 476 327 480 304 480 c 0
 282 480 261 475 242 465 c 128
 223 455 206 440 192 422 c 128
 178 404 167 382 159 357 c 128
 151 332 147 303 147 272 c 0
 147 206 160 155 186 118 c 128
 212 81 249 63 297 63 c 0
EndSplineSet
Validated: 1
EndChar

StartChar: e
Encoding: 101 101 68
Width: 554
Flags: HW
LayerCount: 2
Fore
SplineSet
311 -13 m 0
 275 -13 242 -7 210 6 c 128
 178 19 150 38 127 62 c 128
 104 86 86 116 72 151 c 128
 58 186 51 226 51 271 c 0
 51 315 58 355 72 390 c 128
 86 425 103 455 126 480 c 128
 149 505 174 524 204 537 c 128
 234 550 265 557 296 557 c 0
 331 557 361 551 388 539 c 128
 415 527 438 510 456 488 c 128
 474 466 488 438 498 407 c 128
 508 376 512 341 512 302 c 0
 512 292 512 283 511 274 c 128
 510 265 509 257 508 250 c 1
 142 250 l 1
 145 191 164 145 196 111 c 128
 228 77 270 60 322 60 c 0
 349 60 373 64 395 72 c 128
 417 80 438 90 458 103 c 1
 491 43 l 1
 467 28 440 15 411 4 c 128
 382 -7 348 -13 311 -13 c 0
432 315 m 1
 432 370 420 412 396 441 c 128
 372 470 340 484 297 484 c 0
 278 484 260 480 242 472 c 128
 224 464 208 454 194 440 c 128
 180 426 168 407 159 386 c 128
 150 365 144 342 141 315 c 1
 432 315 l 1
EndSplineSet
Validated: 1
EndChar

StartChar: f
Encoding: 102 102 69
Width: 325
Flags: HW
LayerCount: 2
Fore
SplineSet
336 722 m 1
 315 731 295 736 275 736 c 0
 224 736 198 700 198 629 c 2
 198 543 l 1
 313 543 l 1
 313 469 l 1
 198 469 l 1
 198 0 l 1
 107 0 l 1
 107 469 l 1
 33 469 l 1
 33 538 l 1
 107 543 l 1
 107 630 l 2
 107 685 120 729 146 761 c 128
 172 793 211 809 265 809 c 0
 282 809 298 807 313 804 c 128
 328 801 343 796 356 791 c 1
 336 722 l 1
EndSplineSet
Validated: 1
EndChar

StartChar: g
Encoding: 103 103 70
Width: 563
Flags: HW
LayerCount: 2
Fore
SplineSet
275 -250 m 0
 242 -250 212 -246 184 -240 c 128
 156 -234 132 -224 112 -212 c 128
 92 -200 77 -184 66 -166 c 128
 55 -148 50 -127 50 -104 c 256
 50 -81 58 -59 72 -38 c 128
 86 -17 106 2 131 19 c 1
 131 23 l 1
 116 32 104 43 95 58 c 128
 86 73 81 91 81 112 c 0
 81 135 88 155 101 172 c 128
 114 189 128 203 142 213 c 1
 142 217 l 1
 124 232 108 251 93 276 c 128
 78 301 71 330 71 363 c 0
 71 393 77 420 88 444 c 128
 99 468 113 487 132 504 c 128
 151 521 172 535 197 544 c 128
 222 553 248 557 275 557 c 0
 290 557 305 555 318 552 c 128
 331 549 342 546 351 543 c 1
 540 543 l 1
 540 473 l 1
 429 473 l 1
 442 460 453 444 461 425 c 128
 469 406 473 384 473 361 c 0
 473 332 468 306 458 283 c 128
 448 260 433 240 415 223 c 128
 397 206 376 194 352 185 c 128
 328 176 302 172 275 172 c 0
 246 172 219 178 194 191 c 1
 184 182 176 174 169 164 c 128
 162 154 159 141 159 126 c 0
 159 109 166 95 179 84 c 128
 192 73 217 67 254 67 c 2
 360 67 l 2
 423 67 471 57 502 36 c 128
 533 15 549 -17 549 -62 c 0
 549 -87 543 -111 530 -134 c 128
 517 -157 499 -177 475 -194 c 128
 451 -211 422 -225 388 -235 c 128
 354 -245 317 -250 275 -250 c 0
275 234 m 0
 290 234 305 237 319 243 c 128
 333 249 345 258 356 269 c 128
 367 280 375 294 381 310 c 128
 387 326 390 343 390 363 c 0
 390 403 378 434 356 456 c 128
 334 478 307 490 275 490 c 256
 243 490 216 478 193 456 c 128
 170 434 159 403 159 363 c 0
 159 343 162 326 168 310 c 128
 174 294 184 280 194 269 c 128
 204 258 216 249 230 243 c 128
 244 237 259 234 275 234 c 0
288 -188 m 0
 314 -188 338 -184 359 -178 c 128
 380 -172 399 -164 414 -154 c 128
 429 -144 440 -132 448 -118 c 128
 456 -104 461 -90 461 -76 c 0
 461 -51 451 -34 432 -24 c 128
 413 -14 386 -9 350 -9 c 2
 256 -9 l 2
 246 -9 234 -8 222 -7 c 128
 210 -6 198 -3 186 0 c 1
 167 -14 153 -28 144 -44 c 128
 135 -60 130 -76 130 -92 c 0
 130 -121 144 -145 172 -162 c 128
 200 -179 238 -188 288 -188 c 0
EndSplineSet
Validated: 1
EndChar

StartChar: h
Encoding: 104 104 71
Width: 607
Flags: HW
LayerCount: 2
Fore
SplineSet
92 796 m 1
 183 796 l 1
 183 578 l 1
 180 466 l 1
 205 491 232 512 261 530 c 128
 290 548 323 557 360 557 c 0
 417 557 459 539 486 503 c 128
 513 467 526 414 526 344 c 2
 526 0 l 1
 435 0 l 1
 435 332 l 2
 435 383 426 420 410 443 c 128
 394 466 368 477 332 477 c 0
 304 477 279 470 257 456 c 128
 235 442 210 421 183 394 c 1
 183 0 l 1
 92 0 l 1
 92 796 l 1
EndSplineSet
Validated: 1
EndChar

StartChar: i
Encoding: 105 105 72
Width: 275
Flags: HW
LayerCount: 2
Fore
SplineSet
138 655 m 256
 120 655 105 661 93 672 c 128
 81 683 75 697 75 714 c 0
 75 733 81 748 93 758 c 128
 105 768 120 773 138 773 c 256
 156 773 171 768 183 758 c 128
 195 748 201 733 201 714 c 0
 201 697 195 683 183 672 c 128
 171 661 156 655 138 655 c 256
92 543 m 1
 183 543 l 1
 183 0 l 1
 92 0 l 1
 92 543 l 1
EndSplineSet
Validated: 1
EndChar

StartChar: j
Encoding: 106 106 73
Width: 275
Flags: HW
LayerCount: 2
Fore
SplineSet
139 655 m 0
 121 655 106 661 94 672 c 128
 82 683 76 697 76 714 c 0
 76 733 82 748 94 758 c 128
 106 768 121 773 139 773 c 0
 156 773 172 768 184 758 c 128
 196 748 202 733 202 714 c 0
 202 697 196 683 184 672 c 128
 172 661 156 655 139 655 c 0
36 -243 m 0
 19 -243 4 -241 -10 -238 c 128
 -24 -235 -35 -232 -44 -229 c 1
 -26 -159 l 1
 -19 -162 -11 -164 -2 -166 c 128
 7 -168 16 -169 25 -169 c 0
 52 -169 71 -159 80 -140 c 128
 89 -121 93 -95 93 -62 c 2
 93 543 l 1
 184 543 l 1
 184 -62 l 2
 184 -117 173 -161 150 -194 c 128
 127 -227 89 -243 36 -243 c 0
EndSplineSet
Validated: 1
EndChar

StartChar: k
Encoding: 107 107 74
Width: 552
Flags: HW
LayerCount: 2
Fore
SplineSet
92 796 m 1
 182 796 l 1
 182 256 l 1
 184 256 l 1
 417 543 l 1
 518 543 l 1
 336 325 l 1
 542 0 l 1
 443 0 l 1
 284 262 l 1
 182 143 l 1
 182 0 l 1
 92 0 l 1
 92 796 l 1
EndSplineSet
Validated: 1
EndChar

StartChar: l
Encoding: 108 108 75
Width: 285
Flags: HW
LayerCount: 2
Fore
SplineSet
188 -13 m 0
 154 -13 129 -3 114 18 c 128
 99 39 92 69 92 108 c 2
 92 796 l 1
 183 796 l 1
 183 102 l 2
 183 88 185 78 190 72 c 128
 195 66 202 63 209 63 c 0
 213 63 212 63 216 63 c 128
 218 63 223 64 228 65 c 1
 241 -5 l 1
 234 -8 226 -10 218 -11 c 128
 210 -12 200 -13 188 -13 c 0
EndSplineSet
Validated: 1
EndChar

StartChar: m
Encoding: 109 109 76
Width: 926
Flags: HW
LayerCount: 2
Fore
SplineSet
92 543 m 1
 167 543 l 1
 175 464 l 1
 178 464 l 1
 201 490 228 512 256 530 c 128
 284 548 314 557 347 557 c 0
 389 557 422 548 445 529 c 128
 468 510 486 485 497 453 c 1
 525 484 553 509 582 528 c 128
 611 547 643 557 676 557 c 0
 733 557 774 539 801 503 c 128
 828 467 841 414 841 344 c 2
 841 0 l 1
 750 0 l 1
 750 332 l 2
 750 383 742 420 726 443 c 128
 710 466 684 477 649 477 c 0
 608 477 563 449 512 394 c 1
 512 0 l 1
 421 0 l 1
 421 332 l 2
 421 383 412 420 396 443 c 128
 380 466 355 477 320 477 c 0
 278 477 232 449 183 394 c 1
 183 0 l 1
 92 0 l 1
 92 543 l 1
EndSplineSet
Validated: 1
EndChar

StartChar: n
Encoding: 110 110 77
Width: 611
Flags: HW
LayerCount: 2
Fore
SplineSet
92 543 m 1
 167 543 l 1
 175 465 l 1
 178 465 l 1
 204 490 231 512 260 530 c 128
 289 548 323 557 360 557 c 0
 417 557 459 539 486 503 c 128
 513 467 526 414 526 344 c 2
 526 0 l 1
 435 0 l 1
 435 332 l 2
 435 383 426 420 410 443 c 128
 394 466 368 477 332 477 c 0
 304 477 279 470 257 456 c 128
 235 442 210 421 183 394 c 1
 183 0 l 1
 92 0 l 1
 92 543 l 1
EndSplineSet
Validated: 1
EndChar

StartChar: o
Encoding: 111 111 78
Width: 606
Flags: HW
LayerCount: 2
Fore
SplineSet
303 -13 m 256
 270 -13 238 -7 208 6 c 128
 178 19 150 38 127 62 c 128
 104 86 86 116 72 151 c 128
 58 186 51 226 51 271 c 0
 51 316 58 357 72 392 c 128
 86 427 104 457 127 482 c 128
 150 507 178 525 208 538 c 128
 238 551 270 557 303 557 c 256
 336 557 368 551 398 538 c 128
 428 525 456 507 479 482 c 128
 502 457 520 427 534 392 c 128
 548 357 555 316 555 271 c 0
 555 226 548 186 534 151 c 128
 520 116 502 86 479 62 c 128
 456 38 428 19 398 6 c 128
 368 -7 336 -13 303 -13 c 256
303 63 m 256
 326 63 348 68 367 78 c 128
 386 88 403 102 417 120 c 128
 431 138 442 160 450 186 c 128
 458 212 461 240 461 271 c 256
 461 302 458 330 450 356 c 128
 442 382 431 404 417 423 c 128
 403 442 386 456 367 466 c 128
 348 476 326 481 303 481 c 256
 280 481 258 476 239 466 c 128
 220 456 204 442 190 423 c 128
 176 404 166 382 158 356 c 128
 150 330 146 302 146 271 c 256
 146 240 150 212 158 186 c 128
 166 160 176 138 190 120 c 128
 204 102 220 88 239 78 c 128
 258 68 280 63 303 63 c 256
EndSplineSet
Validated: 1
EndChar

StartChar: p
Encoding: 112 112 79
Width: 620
Flags: HW
LayerCount: 2
Fore
SplineSet
92 543 m 1
 167 543 l 1
 175 481 l 1
 178 481 l 1
 203 501 230 519 259 534 c 128
 288 549 319 557 351 557 c 0
 386 557 417 550 444 537 c 128
 471 524 494 505 512 481 c 128
 530 457 544 428 553 394 c 128
 562 360 567 322 567 280 c 0
 567 233 561 192 548 156 c 128
 535 120 518 89 496 64 c 128
 474 39 448 19 420 6 c 128
 392 -7 362 -13 331 -13 c 0
 306 -13 281 -7 256 4 c 128
 231 15 206 30 181 50 c 1
 183 -45 l 1
 183 -229 l 1
 92 -229 l 1
 92 543 l 1
316 63 m 0
 339 63 359 68 378 78 c 128
 397 88 414 102 428 120 c 128
 442 138 452 161 460 188 c 128
 468 215 472 245 472 279 c 0
 472 309 469 336 464 361 c 128
 459 386 450 406 439 424 c 128
 428 442 413 456 395 466 c 128
 377 476 355 480 329 480 c 0
 306 480 282 474 258 461 c 128
 234 448 210 430 183 405 c 1
 183 120 l 1
 208 99 231 84 254 76 c 128
 277 68 298 63 316 63 c 0
EndSplineSet
Validated: 1
EndChar

StartChar: q
Encoding: 113 113 80
Width: 620
Flags: HW
LayerCount: 2
Fore
SplineSet
436 -36 m 1
 441 63 l 1
 419 42 394 24 366 9 c 128
 338 -6 309 -13 277 -13 c 0
 243 -13 212 -7 184 6 c 128
 156 19 133 37 114 61 c 128
 95 85 80 115 69 150 c 128
 58 185 53 226 53 271 c 0
 53 315 59 355 72 390 c 128
 85 425 103 455 124 480 c 128
 145 505 170 524 199 537 c 128
 228 550 257 557 288 557 c 0
 320 557 348 551 372 540 c 128
 396 529 420 512 443 491 c 1
 446 491 l 1
 455 543 l 1
 527 543 l 1
 527 -229 l 1
 436 -229 l 1
 436 -36 l 1
297 63 m 0
 322 63 346 70 368 82 c 128
 390 94 413 113 436 138 c 1
 436 423 l 1
 413 444 391 458 370 467 c 128
 349 476 327 480 304 480 c 0
 282 480 261 475 242 465 c 128
 223 455 206 440 192 422 c 128
 178 404 167 382 159 357 c 128
 151 332 147 303 147 272 c 0
 147 206 160 155 186 118 c 128
 212 81 249 63 297 63 c 0
EndSplineSet
Validated: 1
EndChar

StartChar: r
Encoding: 114 114 81
Width: 388
Flags: HW
LayerCount: 2
Fore
SplineSet
92 543 m 1
 167 543 l 1
 175 444 l 1
 178 444 l 1
 197 479 220 506 246 526 c 128
 272 546 301 557 332 557 c 0
 344 557 355 556 364 554 c 128
 373 552 381 550 390 545 c 1
 373 465 l 1
 364 468 355 471 348 472 c 128
 341 473 331 474 320 474 c 256
 309 474 296 472 284 468 c 128
 272 464 260 456 248 446 c 128
 236 436 225 424 214 408 c 128
 203 392 192 372 183 349 c 1
 183 0 l 1
 92 0 l 1
 92 543 l 1
EndSplineSet
Validated: 1
EndChar

StartChar: s
Encoding: 115 115 82
Width: 468
Flags: HW
LayerCount: 2
Fore
SplineSet
234 -13 m 0
 195 -13 158 -6 123 8 c 128
 88 22 57 41 31 62 c 1
 76 122 l 1
 99 103 124 88 150 76 c 128
 176 64 204 58 237 58 c 0
 273 58 300 66 318 83 c 128
 336 100 344 120 344 143 c 0
 344 157 340 170 333 180 c 128
 326 190 316 199 304 207 c 128
 292 215 280 222 265 228 c 128
 250 234 235 240 220 246 c 0
 201 253 182 262 163 270 c 128
 144 278 126 288 110 300 c 128
 94 312 82 327 72 344 c 128
 62 361 58 380 58 403 c 0
 58 424 62 444 70 463 c 128
 78 482 91 498 107 512 c 128
 123 526 143 537 166 545 c 128
 189 553 216 557 245 557 c 0
 279 557 310 551 339 539 c 128
 368 527 393 513 414 496 c 1
 370 437 l 1
 351 451 332 463 312 472 c 128
 292 481 270 485 245 485 c 0
 211 485 186 477 170 462 c 128
 154 447 146 428 146 407 c 0
 146 394 149 383 156 374 c 128
 163 365 172 357 183 350 c 128
 194 343 208 336 222 330 c 128
 236 324 251 319 266 313 c 0
 286 306 306 298 326 289 c 128
 346 280 362 270 378 258 c 128
 394 246 407 230 417 213 c 128
 427 196 432 174 432 148 c 0
 432 126 428 106 419 86 c 128
 410 66 398 48 381 34 c 128
 364 20 344 9 319 0 c 128
 294 -9 266 -13 234 -13 c 0
EndSplineSet
Validated: 1
EndChar

StartChar: t
Encoding: 116 116 83
Width: 377
Flags: HW
LayerCount: 2
Fore
SplineSet
263 -13 m 0
 234 -13 210 -9 190 0 c 128
 170 9 154 20 142 36 c 128
 130 52 121 72 116 94 c 128
 111 116 108 141 108 168 c 2
 108 469 l 1
 27 469 l 1
 27 538 l 1
 112 543 l 1
 123 695 l 1
 199 695 l 1
 199 543 l 1
 346 543 l 1
 346 469 l 1
 199 469 l 1
 199 166 l 2
 199 132 205 106 217 88 c 128
 229 70 251 61 283 61 c 0
 292 61 303 63 314 66 c 128
 325 69 336 72 345 75 c 1
 363 7 l 1
 348 2 331 -3 314 -7 c 128
 297 -11 280 -13 263 -13 c 0
EndSplineSet
Validated: 1
EndChar

StartChar: u
Encoding: 117 117 84
Width: 607
Flags: HW
LayerCount: 2
Fore
SplineSet
250 -13 m 0
 193 -13 150 5 124 41 c 128
 98 77 85 130 85 199 c 2
 85 543 l 1
 176 543 l 1
 176 210 l 2
 176 159 184 123 200 100 c 128
 216 77 242 66 278 66 c 0
 306 66 331 74 353 88 c 128
 375 102 399 125 425 158 c 1
 425 543 l 1
 516 543 l 1
 516 0 l 1
 440 0 l 1
 433 85 l 1
 430 85 l 1
 405 56 378 32 349 14 c 128
 320 -4 287 -13 250 -13 c 0
EndSplineSet
Validated: 1
EndChar

StartChar: v
Encoding: 118 118 85
Width: 521
Flags: HW
LayerCount: 2
Fore
SplineSet
13 543 m 1
 108 543 l 1
 210 234 l 2
 219 207 228 180 236 153 c 128
 244 126 252 99 261 74 c 1
 265 74 l 1
 273 99 281 126 290 153 c 128
 299 180 307 207 315 234 c 2
 418 543 l 1
 508 543 l 1
 315 0 l 1
 209 0 l 1
 13 543 l 1
EndSplineSet
Validated: 1
EndChar

StartChar: w
Encoding: 119 119 86
Width: 802
Flags: HW
LayerCount: 2
Fore
SplineSet
27 543 m 1
 120 543 l 1
 201 229 l 2
 206 203 212 177 217 152 c 128
 222 127 228 102 233 77 c 1
 238 77 l 1
 244 102 250 128 256 153 c 128
 262 178 268 204 275 229 c 2
 359 543 l 1
 448 543 l 1
 533 229 l 2
 540 203 546 177 552 152 c 128
 558 127 564 102 571 77 c 1
 575 77 l 1
 581 102 587 127 592 152 c 128
 597 177 603 203 609 229 c 2
 689 543 l 1
 775 543 l 1
 629 0 l 1
 519 0 l 1
 440 293 l 2
 433 318 426 344 421 369 c 128
 416 394 410 421 403 449 c 1
 398 449 l 1
 392 421 386 394 380 368 c 128
 374 342 368 317 361 291 c 2
 285 0 l 1
 178 0 l 1
 27 543 l 1
EndSplineSet
Validated: 1
EndChar

StartChar: x
Encoding: 120 120 87
Width: 498
Flags: HW
LayerCount: 2
Fore
SplineSet
194 283 m 1
 29 543 l 1
 127 543 l 1
 200 423 l 2
 209 408 217 393 226 378 c 128
 235 363 245 348 254 333 c 1
 258 333 l 1
 267 348 275 363 283 378 c 128
 291 393 299 408 307 423 c 2
 374 543 l 1
 469 543 l 1
 304 274 l 1
 483 0 l 1
 383 0 l 1
 303 127 l 2
 294 144 284 160 274 176 c 128
 264 192 255 209 245 224 c 1
 240 224 l 1
 231 209 221 192 212 176 c 128
 203 160 193 144 184 127 c 2
 111 0 l 1
 15 0 l 1
 194 283 l 1
EndSplineSet
Validated: 1
EndChar

StartChar: y
Encoding: 121 121 88
Width: 521
Flags: HW
LayerCount: 2
Fore
SplineSet
101 -234 m 0
 76 -234 55 -230 37 -223 c 1
 55 -150 l 1
 60 -152 67 -154 74 -156 c 128
 81 -158 89 -159 96 -159 c 0
 127 -159 152 -148 172 -126 c 128
 192 -104 208 -76 219 -42 c 2
 231 -1 l 1
 13 543 l 1
 108 543 l 1
 219 241 l 2
 227 218 235 193 244 166 c 128
 253 139 262 114 271 89 c 1
 276 89 l 1
 283 114 291 140 299 166 c 128
 307 192 315 217 322 241 c 2
 419 543 l 1
 508 543 l 1
 303 -45 l 2
 294 -72 282 -97 270 -120 c 128
 258 -143 244 -163 228 -180 c 128
 212 -197 194 -210 173 -220 c 128
 152 -230 128 -234 101 -234 c 0
EndSplineSet
Validated: 1
EndChar

StartChar: z
Encoding: 122 122 89
Width: 474
Flags: HW
LayerCount: 2
Fore
SplineSet
35 49 m 1
 321 469 l 1
 66 469 l 1
 66 543 l 1
 436 543 l 1
 436 494 l 1
 150 74 l 1
 446 74 l 1
 446 0 l 1
 35 0 l 1
 35 49 l 1
EndSplineSet
Validated: 1
EndChar

StartChar: braceleft
Encoding: 123 123 90
Width: 338
Flags: HW
LayerCount: 2
Fore
SplineSet
255 -170 m 2
 233 -170 214 -168 197 -163 c 128
 180 -158 167 -150 156 -139 c 128
 145 -128 137 -113 132 -94 c 128
 127 -75 124 -50 124 -21 c 0
 124 -1 125 18 126 36 c 128
 127 54 128 71 129 88 c 128
 130 105 131 123 132 140 c 128
 133 157 134 175 134 194 c 0
 134 205 133 216 130 226 c 128
 127 236 121 246 114 254 c 128
 107 262 98 269 86 274 c 128
 74 279 57 282 38 282 c 1
 38 339 l 1
 57 339 74 342 86 347 c 128
 98 352 107 359 114 367 c 128
 121 375 127 384 130 394 c 128
 133 404 134 415 134 426 c 0
 134 445 133 463 132 480 c 128
 131 497 130 515 129 532 c 128
 128 549 127 567 126 585 c 128
 125 603 124 622 124 642 c 0
 124 671 127 695 132 714 c 128
 137 733 145 749 156 760 c 128
 167 771 180 779 197 784 c 128
 214 789 233 791 255 791 c 2
 304 791 l 1
 304 740 l 1
 275 740 l 2
 245 740 224 732 214 716 c 128
 204 700 199 673 199 637 c 0
 199 603 200 570 202 539 c 128
 204 508 205 473 205 434 c 0
 205 398 200 371 190 352 c 128
 180 333 163 320 138 313 c 1
 138 309 l 1
 163 302 180 289 190 270 c 128
 200 251 205 223 205 187 c 0
 205 149 204 114 202 82 c 128
 200 50 199 18 199 -16 c 0
 199 -52 204 -78 214 -94 c 128
 224 -110 245 -118 275 -118 c 2
 304 -118 l 1
 304 -170 l 1
 255 -170 l 2
EndSplineSet
Validated: 1
EndChar

StartChar: bar
Encoding: 124 124 91
Width: 269
Flags: HW
LayerCount: 2
Fore
SplineSet
103 838 m 1
 167 838 l 1
 167 -279 l 1
 103 -279 l 1
 103 838 l 1
EndSplineSet
Validated: 1
EndChar

StartChar: braceright
Encoding: 125 125 92
Width: 338
Flags: HW
LayerCount: 2
Fore
SplineSet
34 -118 m 1
 63 -118 l 2
 94 -118 114 -110 124 -94 c 128
 134 -78 139 -52 139 -16 c 0
 139 18 138 50 136 82 c 128
 134 114 134 149 134 187 c 0
 134 223 139 251 149 270 c 128
 159 289 176 302 200 309 c 1
 200 313 l 1
 176 320 159 333 149 352 c 128
 139 371 134 398 134 434 c 0
 134 473 134 508 136 539 c 128
 138 570 139 603 139 637 c 0
 139 673 134 700 124 716 c 128
 114 732 94 740 63 740 c 2
 34 740 l 1
 34 791 l 1
 84 791 l 2
 106 791 126 789 142 784 c 128
 158 779 171 771 182 760 c 128
 193 749 201 733 206 714 c 128
 211 695 214 671 214 642 c 0
 214 622 213 603 212 585 c 128
 211 567 211 549 210 532 c 128
 209 515 207 497 206 480 c 128
 205 463 205 445 205 426 c 0
 205 415 206 404 209 394 c 128
 212 384 217 375 224 367 c 128
 231 359 242 352 254 347 c 128
 266 342 281 339 300 339 c 1
 300 282 l 1
 281 282 266 279 254 274 c 128
 242 269 231 262 224 254 c 128
 217 246 212 236 209 226 c 128
 206 216 205 205 205 194 c 0
 205 175 205 157 206 140 c 128
 207 123 209 105 210 88 c 128
 211 71 211 54 212 36 c 128
 213 18 214 -1 214 -21 c 0
 214 -50 211 -75 206 -94 c 128
 201 -113 193 -128 182 -139 c 128
 171 -150 158 -158 142 -163 c 128
 126 -168 106 -170 84 -170 c 2
 34 -170 l 1
 34 -118 l 1
EndSplineSet
Validated: 1
EndChar

StartChar: asciitilde
Encoding: 126 126 93
Width: 555
Flags: HW
LayerCount: 2
Fore
SplineSet
376 287 m 0
 354 287 334 292 316 302 c 128
 298 312 282 322 267 334 c 128
 252 346 236 357 222 367 c 128
 208 377 193 382 177 382 c 256
 161 382 146 377 132 366 c 128
 118 355 104 338 91 314 c 1
 40 350 l 1
 61 385 83 410 107 426 c 128
 131 442 155 450 180 450 c 0
 202 450 222 446 239 436 c 128
 256 426 273 415 288 403 c 128
 303 391 318 380 332 370 c 128
 346 360 362 356 378 356 c 256
 394 356 409 361 423 372 c 128
 437 383 450 400 463 424 c 1
 515 387 l 1
 494 352 472 326 448 310 c 128
 424 294 400 287 376 287 c 0
EndSplineSet
Validated: 1
EndChar

StartChar: uniFF1F
Encoding: 65311 65311 94
Width: 800
Flags: HW
LayerCount: 2
Fore
SplineSet
348 242 m 5
 346 253 345 264 345 274 c 4
 345 289 347 303 352 316 c 132
 360 337 373 356 388 374 c 132
 403 392 420 409 439 424 c 132
 458 439 476 454 493 469 c 132
 510 484 524 499 536 515 c 132
 548 531 553 548 553 567 c 4
 553 602 541 630 516 652 c 132
 491 674 452 686 401 686 c 4
 367 686 334 679 302 664 c 132
 270 649 240 626 212 595 c 5
 158 645 l 5
 191 680 228 709 268 730 c 132
 308 751 356 761 411 761 c 4
 446 761 478 757 506 748 c 132
 534 739 559 726 579 710 c 132
 599 694 615 675 626 652 c 132
 637 629 642 603 642 574 c 4
 642 549 636 527 624 508 c 132
 612 489 598 470 581 454 c 132
 564 438 545 423 526 408 c 132
 507 393 489 377 473 361 c 132
 457 345 445 327 436 308 c 132
 430 296 427 283 427 268 c 4
 427 260 428 251 430 242 c 5
 348 242 l 5
310 74 m 260
 310 98 318 117 334 131 c 132
 350 145 369 152 391 152 c 260
 413 152 432 145 448 131 c 132
 464 117 471 98 471 74 c 260
 471 50 464 30 448 16 c 132
 432 2 413 -5 391 -5 c 260
 369 -5 350 2 334 16 c 132
 318 30 310 50 310 74 c 260
EndSplineSet
Validated: 1
EndChar

StartChar: uniFF01
Encoding: 65281 65281 95
Width: 800
Flags: HW
LayerCount: 2
Fore
SplineSet
343 630 m 1
 340 748 l 1
 460 748 l 1
 458 630 l 1
 433 242 l 1
 367 242 l 1
 343 630 l 1
400 -5 m 256
 378 -5 360 2 344 16 c 128
 328 30 320 49 320 74 c 0
 320 97 328 116 344 130 c 128
 360 144 378 152 400 152 c 256
 422 152 440 144 456 130 c 128
 472 116 480 97 480 74 c 0
 480 49 472 30 456 16 c 128
 440 2 422 -5 400 -5 c 256
EndSplineSet
Validated: 1
EndChar

StartChar: uniFF1B
Encoding: 65307 65307 96
Width: 800
Flags: HW
LayerCount: 2
Fore
SplineSet
406 544 m 256
 386 544 369 551 354 564 c 128
 339 577 331 596 331 619 c 256
 331 642 339 661 354 674 c 128
 369 687 386 694 406 694 c 256
 426 694 444 687 459 674 c 128
 474 661 482 642 482 619 c 256
 482 596 474 577 459 564 c 128
 444 551 426 544 406 544 c 256
302 -50 m 1
 343 -31 374 -9 395 18 c 128
 416 45 428 79 429 118 c 1
 426 117 423 116 420 116 c 128
 416 116 416 116 411 116 c 0
 390 116 373 122 358 134 c 128
 343 146 336 164 336 188 c 0
 336 211 344 230 359 242 c 128
 374 254 392 260 412 260 c 0
 440 260 461 250 476 228 c 128
 491 206 498 176 498 138 c 0
 498 79 483 30 452 -11 c 128
 421 -52 379 -82 325 -103 c 1
 302 -50 l 1
EndSplineSet
Validated: 1
EndChar

StartChar: uniFF1A
Encoding: 65306 65306 97
Width: 800
Flags: HW
LayerCount: 2
Fore
SplineSet
400 544 m 256
 380 544 362 551 347 564 c 128
 332 577 324 596 324 619 c 256
 324 642 332 661 347 674 c 128
 362 687 380 694 400 694 c 256
 420 694 438 687 453 674 c 128
 468 661 476 642 476 619 c 256
 476 596 468 577 453 564 c 128
 438 551 420 544 400 544 c 256
400 54 m 256
 380 54 362 60 347 74 c 128
 332 88 324 106 324 129 c 0
 324 152 332 170 347 184 c 128
 362 198 380 205 400 205 c 256
 420 205 438 198 453 184 c 128
 468 170 476 152 476 129 c 0
 476 106 468 88 453 74 c 128
 438 60 420 54 400 54 c 256
EndSplineSet
Validated: 1
EndChar

StartChar: uniFF0C
Encoding: 65292 65292 98
Width: 800
Flags: HW
LayerCount: 2
Fore
SplineSet
302 241 m 1
 341 257 371 277 392 301 c 128
 413 325 425 354 428 388 c 1
 425 387 422 387 420 387 c 128
 416 387 417 387 412 387 c 0
 391 387 373 393 358 405 c 128
 343 417 336 435 336 458 c 256
 336 481 344 500 359 512 c 128
 374 524 391 530 412 530 c 0
 440 530 462 520 476 499 c 128
 490 478 498 450 498 415 c 0
 498 361 481 314 450 275 c 128
 419 236 377 207 324 188 c 1
 302 241 l 1
EndSplineSet
Validated: 1
EndChar

StartChar: uni3000
Encoding: 12288 12288 99
Width: 1000
Flags: HW
LayerCount: 2
Fore
SplineSet
140 830 m 1
 140 799 l 1
 81 799 l 1
 81 740 l 1
 50 740 l 1
 50 830 l 1
 140 830 l 1
212 830 m 1
 302 830 l 1
 302 799 l 1
 212 799 l 1
 212 830 l 1
374 830 m 1
 464 830 l 1
 464 799 l 1
 374 799 l 1
 374 830 l 1
536 830 m 1
 626 830 l 1
 626 799 l 1
 536 799 l 1
 536 830 l 1
698 830 m 1
 788 830 l 1
 788 799 l 1
 698 799 l 1
 698 830 l 1
950 830 m 1
 950 740 l 1
 919 740 l 1
 919 799 l 1
 860 799 l 1
 860 830 l 1
 950 830 l 1
81 578 m 1
 50 578 l 1
 50 668 l 1
 81 668 l 1
 81 578 l 1
919 668 m 1
 950 668 l 1
 950 578 l 1
 919 578 l 1
 919 668 l 1
81 416 m 1
 50 416 l 1
 50 506 l 1
 81 506 l 1
 81 416 l 1
919 506 m 1
 950 506 l 1
 950 416 l 1
 919 416 l 1
 919 506 l 1
81 254 m 1
 50 254 l 1
 50 344 l 1
 81 344 l 1
 81 254 l 1
919 344 m 1
 950 344 l 1
 950 254 l 1
 919 254 l 1
 919 344 l 1
81 92 m 1
 50 92 l 1
 50 182 l 1
 81 182 l 1
 81 92 l 1
919 182 m 1
 950 182 l 1
 950 92 l 1
 919 92 l 1
 919 182 l 1
81 -39 m 1
 140 -39 l 1
 140 -70 l 1
 50 -70 l 1
 50 20 l 1
 81 20 l 1
 81 -39 l 1
919 20 m 1
 950 20 l 1
 950 -70 l 1
 860 -70 l 1
 860 -39 l 1
 919 -39 l 1
 919 20 l 1
212 -39 m 1
 302 -39 l 1
 302 -70 l 1
 212 -70 l 1
 212 -39 l 1
374 -39 m 1
 464 -39 l 1
 464 -70 l 1
 374 -70 l 1
 374 -39 l 1
536 -39 m 1
 626 -39 l 1
 626 -70 l 1
 536 -70 l 1
 536 -39 l 1
698 -39 m 1
 788 -39 l 1
 788 -70 l 1
 698 -70 l 1
 698 -39 l 1
EndSplineSet
Validated: 1
EndChar

StartChar: uni3001
Encoding: 12289 12289 100
Width: 800
Flags: HW
LayerCount: 2
Fore
SplineSet
320 514 m 1
 338 499 357 483 377 465 c 128
 397 447 416 428 436 409 c 128
 456 390 475 370 494 350 c 128
 513 330 529 311 544 292 c 1
 476 235 l 1
 443 275 407 315 368 354 c 128
 329 393 292 428 256 457 c 1
 320 514 l 1
EndSplineSet
Validated: 1
EndChar

StartChar: uni3002
Encoding: 12290 12290 101
Width: 800
Flags: HW
LayerCount: 2
Fore
SplineSet
248 379 m 0
 248 400 252 420 260 438 c 128
 268 456 279 472 293 486 c 128
 307 500 324 511 342 519 c 128
 360 527 379 531 400 531 c 0
 421 531 442 527 460 519 c 128
 478 511 494 500 508 486 c 128
 522 472 532 456 540 438 c 128
 548 420 552 400 552 379 c 0
 552 358 548 339 540 320 c 128
 532 301 522 286 508 272 c 128
 494 258 478 247 460 239 c 128
 442 231 421 227 400 227 c 0
 379 227 360 231 342 239 c 128
 324 247 307 258 293 272 c 128
 279 286 268 301 260 320 c 128
 252 339 248 358 248 379 c 0
299 379 m 256
 299 365 302 352 307 340 c 128
 312 328 320 317 329 308 c 128
 338 299 349 291 361 286 c 128
 373 281 386 278 400 278 c 256
 414 278 428 281 440 286 c 128
 452 291 463 299 472 308 c 128
 481 317 488 328 493 340 c 128
 498 352 501 365 501 379 c 256
 501 393 498 406 493 418 c 128
 488 430 481 441 472 450 c 128
 463 459 452 467 440 472 c 128
 428 477 414 480 400 480 c 256
 386 480 373 477 361 472 c 128
 349 467 338 459 329 450 c 128
 320 441 312 430 307 418 c 128
 302 406 299 393 299 379 c 256
EndSplineSet
Validated: 1
EndChar

StartChar: uni3005
Encoding: 12293 12293 102
Width: 1000
Flags: HW
LayerCount: 2
Fore
SplineSet
839 560 m 1
 827 527 813 493 797 458 c 128
 781 423 763 388 744 354 c 128
 725 320 706 287 685 254 c 128
 664 221 643 191 622 163 c 1
 650 144 676 124 700 105 c 128
 724 86 746 67 763 49 c 1
 710 -19 l 1
 691 2 667 24 638 47 c 128
 609 70 578 94 544 117 c 128
 510 140 473 162 436 184 c 128
 399 206 363 225 328 242 c 1
 376 302 l 1
 405 289 434 274 464 258 c 128
 494 242 525 224 555 206 c 1
 572 228 588 252 604 277 c 128
 620 302 637 328 652 355 c 128
 667 382 681 408 694 435 c 128
 707 462 719 487 730 512 c 1
 391 512 l 1
 361 453 328 397 292 344 c 128
 256 291 216 243 173 201 c 1
 164 208 154 216 140 224 c 128
 126 232 114 240 103 245 c 1
 140 280 175 318 207 362 c 128
 239 406 268 452 295 500 c 128
 322 548 346 596 366 646 c 128
 386 696 403 743 417 789 c 1
 500 770 l 1
 490 740 478 710 466 679 c 128
 454 648 441 618 427 587 c 1
 768 587 l 1
 783 590 l 1
 839 560 l 1
EndSplineSet
Validated: 1
EndChar

StartChar: uni3008
Encoding: 12296 12296 103
Width: 800
Flags: HW
LayerCount: 2
Fore
SplineSet
580 -57 m 1
 517 -86 l 1
 220 380 l 1
 517 846 l 1
 580 817 l 1
 300 380 l 1
 580 -57 l 1
EndSplineSet
Validated: 1
EndChar

StartChar: uni3009
Encoding: 12297 12297 104
Width: 800
Flags: HW
LayerCount: 2
Fore
SplineSet
220 -57 m 1
 500 380 l 1
 220 817 l 1
 283 846 l 1
 580 380 l 1
 283 -86 l 1
 220 -57 l 1
EndSplineSet
Validated: 1
EndChar

StartChar: uni300A
Encoding: 12298 12298 105
Width: 800
Flags: HW
LayerCount: 2
Fore
SplineSet
459 -68 m 1
 405 -86 l 1
 183 380 l 1
 405 846 l 1
 459 828 l 1
 244 380 l 1
 459 -68 l 1
617 -68 m 1
 563 -86 l 1
 341 380 l 1
 563 846 l 1
 617 828 l 1
 402 380 l 1
 617 -68 l 1
EndSplineSet
Validated: 1
EndChar

StartChar: uni300B
Encoding: 12299 12299 106
Width: 800
Flags: HW
LayerCount: 2
Fore
SplineSet
341 -68 m 1
 556 380 l 1
 341 828 l 1
 395 846 l 1
 617 380 l 1
 395 -86 l 1
 341 -68 l 1
183 -68 m 1
 398 380 l 1
 183 828 l 1
 237 846 l 1
 459 380 l 1
 237 -86 l 1
 183 -68 l 1
EndSplineSet
Validated: 1
EndChar

StartChar: uni300C
Encoding: 12300 12300 107
Width: 800
Flags: HW
LayerCount: 2
Fore
SplineSet
242 846 m 1
 558 846 l 1
 558 777 l 1
 316 777 l 1
 316 199 l 1
 242 199 l 1
 242 846 l 1
EndSplineSet
Validated: 1
EndChar

StartChar: uni300D
Encoding: 12301 12301 108
Width: 800
Flags: HW
LayerCount: 2
Fore
SplineSet
558 -86 m 1
 242 -86 l 1
 242 -17 l 1
 484 -17 l 1
 484 561 l 1
 558 561 l 1
 558 -86 l 1
EndSplineSet
Validated: 1
EndChar

StartChar: uni300E
Encoding: 12302 12302 109
Width: 800
Flags: HW
LayerCount: 2
Fore
SplineSet
388 690 m 1
 388 183 l 1
 216 183 l 1
 216 846 l 1
 584 846 l 1
 584 690 l 1
 388 690 l 1
250 813 m 1
 250 216 l 1
 354 216 l 1
 354 723 l 1
 550 723 l 1
 550 813 l 1
 250 813 l 1
EndSplineSet
Validated: 1
EndChar

StartChar: uni300F
Encoding: 12303 12303 110
Width: 800
Flags: HW
LayerCount: 2
Fore
SplineSet
412 70 m 1
 412 577 l 1
 584 577 l 1
 584 -86 l 1
 216 -86 l 1
 216 70 l 1
 412 70 l 1
550 -53 m 1
 550 544 l 1
 446 544 l 1
 446 37 l 1
 250 37 l 1
 250 -53 l 1
 550 -53 l 1
EndSplineSet
Validated: 1
EndChar

StartChar: uni301C
Encoding: 12316 12316 111
Width: 1000
Flags: HW
LayerCount: 2
Fore
SplineSet
697 245 m 0
 674 245 654 247 634 252 c 128
 614 257 595 263 577 272 c 128
 559 281 541 293 524 306 c 128
 507 319 489 335 472 352 c 0
 459 365 446 376 433 386 c 128
 420 396 407 405 394 412 c 128
 381 419 367 424 352 428 c 128
 337 432 320 434 302 434 c 0
 262 434 226 422 193 398 c 128
 160 374 134 342 113 302 c 1
 42 340 l 1
 74 397 112 440 156 470 c 128
 200 500 250 515 303 515 c 0
 348 515 389 506 424 488 c 128
 459 470 493 443 528 408 c 0
 541 395 554 384 567 374 c 128
 580 364 593 355 606 348 c 128
 619 341 633 336 648 332 c 128
 663 328 680 326 698 326 c 0
 738 326 774 338 807 362 c 128
 840 386 866 418 887 458 c 1
 958 420 l 1
 926 363 888 320 844 290 c 128
 800 260 750 245 697 245 c 0
EndSplineSet
Validated: 1
EndChar

StartChar: uni3010
Encoding: 12304 12304 112
Width: 800
Flags: HW
LayerCount: 2
Fore
SplineSet
550 846 m 1
 550 841 l 1
 523 818 497 791 473 759 c 128
 449 727 428 691 410 652 c 128
 392 613 378 570 368 524 c 128
 358 478 352 431 352 380 c 256
 352 329 358 282 368 236 c 128
 378 190 392 147 410 108 c 128
 428 69 449 33 473 1 c 128
 497 -31 523 -58 550 -81 c 1
 550 -86 l 1
 250 -86 l 1
 250 846 l 1
 550 846 l 1
EndSplineSet
Validated: 1
EndChar

StartChar: uni3011
Encoding: 12305 12305 113
Width: 800
Flags: HW
LayerCount: 2
Fore
SplineSet
550 -86 m 1
 250 -86 l 1
 250 -81 l 1
 277 -58 303 -31 327 1 c 128
 351 33 372 69 390 108 c 128
 408 147 422 190 432 236 c 128
 442 282 448 329 448 380 c 256
 448 431 442 478 432 524 c 128
 422 570 408 613 390 652 c 128
 372 691 351 727 327 759 c 128
 303 791 277 818 250 841 c 1
 250 846 l 1
 550 846 l 1
 550 -86 l 1
EndSplineSet
Validated: 1
EndChar

StartChar: uni31D0
Encoding: 12752 12752 114
Width: 1000
Flags: HW
LayerCount: 2
Fore
SplineSet
915 418 m 5
 915 342 l 5
 80 342 l 5
 80 418 l 5
 915 418 l 5
EndSplineSet
Validated: 1
EndChar

StartChar: uni31D1
Encoding: 12753 12753 115
Width: 800
Flags: HW
LayerCount: 2
Fore
SplineSet
439 805 m 5
 439 -42 l 5
 361 -42 l 5
 361 805 l 5
 439 805 l 5
EndSplineSet
Validated: 1
EndChar

StartChar: uni31D2
Encoding: 12754 12754 116
Width: 800
Flags: HW
LayerCount: 2
Fore
SplineSet
696 696 m 1
 671 642 627 564 594 515 c 128
 561 466 507 398 467 355 c 128
 427 312 364 255 320 220 c 128
 276 185 206 138 158 110 c 1
 153 119 144 130 133 144 c 128
 122 158 113 169 104 177 c 1
 151 201 220 245 263 277 c 128
 306 309 367 363 405 403 c 128
 443 443 495 507 526 552 c 128
 557 597 599 670 621 720 c 1
 696 696 l 1
EndSplineSet
Validated: 1
EndChar

StartChar: uni31D4
Encoding: 12756 12756 117
Width: 1000
VWidth: 0
Flags: H
LayerCount: 2
Fore
SplineSet
333 613 m 1
 364 586 399 556 436 524 c 128
 473 492 509 461 545 429 c 128
 581 397 616 366 648 337 c 128
 680 308 707 281 729 258 c 1
 661 199 l 1
 640 222 614 250 583 280 c 128
 552 310 518 341 483 374 c 128
 448 407 412 441 375 474 c 128
 338 507 304 537 271 566 c 1
 333 613 l 1
EndSplineSet
Validated: 1
EndChar

StartChar: uni31D6
Encoding: 12758 12758 118
Width: 1000
Flags: HW
LayerCount: 2
Fore
SplineSet
848 468 m 1
 842 447 835 426 828 404 c 128
 821 382 814 361 806 340 c 128
 798 319 791 299 784 280 c 128
 777 261 769 243 762 228 c 1
 692 246 l 1
 701 267 712 291 722 320 c 128
 732 349 741 379 750 409 c 1
 152 409 l 1
 152 482 l 1
 778 482 l 1
 792 485 l 1
 848 468 l 1
EndSplineSet
Validated: 1
EndChar

StartChar: u1F6C8
Encoding: 128712 128712 119
Width: 1000
Flags: HW
LayerCount: 2
Fore
SplineSet
458 495 m 1
 543 495 l 1
 543 101 l 1
 458 101 l 1
 458 495 l 1
500 -86 m 256
 436 -86 376 -74 319 -50 c 128
 262 -26 212 8 170 50 c 128
 128 92 94 142 70 199 c 128
 46 256 34 316 34 380 c 256
 34 444 46 504 70 561 c 128
 94 618 128 668 170 710 c 128
 212 752 262 786 319 810 c 128
 376 834 436 846 500 846 c 256
 564 846 624 834 681 810 c 128
 738 786 788 752 830 710 c 128
 872 668 906 618 930 561 c 128
 954 504 966 444 966 380 c 0
 966 315 954 255 929 198 c 128
 904 141 870 92 828 50 c 128
 786 8 736 -26 680 -50 c 128
 624 -74 564 -86 500 -86 c 256
500 -16 m 256
 555 -16 606 -6 654 15 c 128
 702 36 744 64 780 100 c 128
 816 136 844 178 865 226 c 128
 886 274 896 325 896 380 c 256
 896 435 886 486 865 534 c 128
 844 582 816 624 780 660 c 128
 744 696 702 724 654 745 c 128
 606 766 555 776 500 776 c 0
 445 776 393 765 345 744 c 128
 297 723 256 695 220 659 c 128
 184 623 156 581 135 533 c 128
 114 485 104 434 104 380 c 0
 104 325 114 274 135 226 c 128
 156 178 184 136 220 100 c 128
 256 64 298 36 346 15 c 128
 394 -6 445 -16 500 -16 c 256
501 563 m 0
 486 563 473 568 463 577 c 128
 453 586 448 598 448 612 c 0
 448 627 453 639 463 649 c 128
 473 659 486 664 501 664 c 0
 518 664 531 659 541 649 c 128
 551 639 556 627 556 612 c 0
 556 598 551 586 541 577 c 128
 531 568 518 563 501 563 c 0
EndSplineSet
Validated: 1
EndChar

StartChar: uni232B
Encoding: 9003 9003 120
Width: 1000
Flags: HW
LayerCount: 2
Fore
SplineSet
309 672 m 1
 966 672 l 1
 966 88 l 1
 309 88 l 1
 34 379 l 1
 309 672 l 1
901 614 m 1
 344 614 l 1
 122 379 l 1
 344 146 l 1
 901 146 l 1
 901 614 l 1
608 332 m 1
 472 196 l 1
 425 242 l 1
 562 379 l 1
 425 517 l 1
 472 564 l 1
 608 427 l 1
 745 564 l 1
 793 517 l 1
 655 379 l 1
 793 242 l 1
 745 196 l 1
 608 332 l 1
EndSplineSet
Validated: 1
EndChar

StartChar: uni23CE
Encoding: 9166 9166 121
Width: 1000
Flags: HW
LayerCount: 2
Fore
SplineSet
955 645 m 1
 955 310 l 2
 955 290 954 272 951 255 c 128
 948 238 942 221 934 207 c 128
 926 193 911 180 898 170 c 128
 885 160 873 152 853 147 c 0
 841 144 829 143 817 142 c 128
 805 141 795 141 785 141 c 2
 414 141 l 1
 414 37 l 1
 15 217 l 1
 414 398 l 1
 414 293 l 1
 737 293 l 2
 746 293 753 293 759 295 c 128
 765 297 769 299 773 303 c 128
 777 307 778 311 780 317 c 128
 782 323 783 330 783 338 c 2
 783 645 l 1
 955 645 l 1
EndSplineSet
Validated: 1
EndChar

StartChar: uniFF08
Encoding: 65288 65288 122
Width: 800
Flags: HW
LayerCount: 2
Fore
SplineSet
470 -96 m 1
 410 -35 361 34 325 114 c 128
 289 194 270 283 270 380 c 256
 270 477 289 566 325 646 c 128
 361 726 410 795 470 856 c 1
 530 825 l 1
 472 765 426 698 393 624 c 128
 360 550 344 469 344 380 c 256
 344 291 360 210 393 136 c 128
 426 62 472 -5 530 -65 c 1
 470 -96 l 1
EndSplineSet
Validated: 1
EndChar

StartChar: uniFF09
Encoding: 65289 65289 123
Width: 800
Flags: HW
LayerCount: 2
Fore
SplineSet
330 856 m 1
 390 795 439 726 475 646 c 128
 511 566 530 477 530 380 c 256
 530 283 511 194 475 114 c 128
 439 34 390 -35 330 -96 c 1
 270 -65 l 1
 328 -5 374 62 407 136 c 128
 440 210 456 291 456 380 c 256
 456 469 440 550 407 624 c 128
 374 698 328 765 270 825 c 1
 330 856 l 1
EndSplineSet
Validated: 1
EndChar

StartChar: uni4E2D
Encoding: 20013 20013 125
Width: 1000
Flags: HW
LayerCount: 2
Fore
SplineSet
899 659 m 1
 899 191 l 1
 823 191 l 1
 823 248 l 1
 536 248 l 1
 536 -76 l 1
 459 -76 l 1
 459 248 l 1
 173 248 l 1
 173 186 l 1
 100 186 l 1
 100 659 l 1
 459 659 l 1
 459 837 l 1
 536 837 l 1
 536 659 l 1
 899 659 l 1
823 321 m 1
 823 586 l 1
 536 586 l 1
 536 321 l 1
 823 321 l 1
459 321 m 1
 459 586 l 1
 173 586 l 1
 173 321 l 1
 459 321 l 1
EndSplineSet
Validated: 1
EndChar

StartChar: uni6587
Encoding: 25991 25991 126
Width: 1000
Flags: HW
LayerCount: 2
Fore
SplineSet
497 663 m 1
 494 673 490 685 485 698 c 128
 480 711 474 725 467 739 c 128
 460 753 454 767 446 781 c 128
 438 795 430 808 423 820 c 1
 500 842 l 1
 507 830 515 817 523 804 c 128
 531 791 539 778 546 764 c 128
 553 750 558 737 564 724 c 128
 570 711 575 700 578 689 c 1
 497 663 l 1
793 588 m 1
 764 509 731 437 692 374 c 128
 653 311 609 253 559 201 c 1
 614 154 675 114 742 79 c 128
 809 44 883 17 963 -2 c 1
 954 -11 944 -22 935 -35 c 128
 926 -48 918 -60 912 -71 c 1
 750 -25 613 48 502 148 c 1
 445 99 383 56 314 20 c 128
 245 -16 169 -48 86 -75 c 1
 81 -66 74 -54 65 -40 c 128
 56 -26 47 -15 40 -6 c 1
 204 41 340 110 448 201 c 1
 396 254 350 314 311 378 c 128
 272 442 237 512 208 588 c 1
 54 588 l 1
 54 661 l 1
 950 661 l 1
 950 588 l 1
 793 588 l 1
285 588 m 1
 311 524 342 464 378 408 c 128
 414 352 456 300 503 253 c 1
 548 298 586 349 620 404 c 128
 654 459 684 520 709 588 c 1
 285 588 l 1
EndSplineSet
Validated: 1
EndChar

StartChar: uni7B46
Encoding: 31558 31558 127
Width: 1000
Flags: HW
LayerCount: 2
Fore
SplineSet
201 719 m 1
 170 675 135 638 98 607 c 1
 93 614 85 622 74 632 c 128
 63 642 54 650 46 657 c 1
 77 680 107 708 134 741 c 128
 161 774 182 808 199 844 c 1
 265 825 l 1
 258 810 249 794 240 778 c 1
 494 778 l 1
 494 719 l 1
 201 719 l 1
953 777 m 1
 953 718 l 1
 605 718 l 1
 592 700 578 683 564 667 c 128
 550 651 534 637 519 624 c 1
 513 630 504 638 492 647 c 128
 480 656 471 664 463 669 c 1
 491 690 516 716 540 747 c 128
 564 778 583 810 597 844 c 1
 666 826 l 1
 659 810 651 794 642 777 c 1
 953 777 l 1
299 717 m 1
 314 703 330 688 347 670 c 128
 364 652 377 637 386 624 c 1
 336 585 l 1
 327 598 314 614 298 632 c 128
 282 650 265 668 250 683 c 1
 299 717 l 1
770 586 m 1
 761 599 748 615 732 633 c 128
 716 651 699 668 683 683 c 1
 735 717 l 1
 750 704 767 688 784 671 c 128
 801 654 814 639 823 626 c 1
 770 586 l 1
842 446 m 1
 949 446 l 1
 949 389 l 1
 842 389 l 1
 842 268 l 1
 534 268 l 1
 534 209 l 1
 868 209 l 1
 868 151 l 1
 534 151 l 1
 534 88 l 1
 933 88 l 1
 933 29 l 1
 534 29 l 1
 534 -77 l 1
 460 -77 l 1
 460 29 l 1
 70 29 l 1
 70 88 l 1
 460 88 l 1
 460 151 l 1
 134 151 l 1
 134 209 l 1
 460 209 l 1
 460 268 l 1
 164 268 l 1
 164 324 l 1
 460 324 l 1
 460 389 l 1
 53 389 l 1
 53 446 l 1
 460 446 l 1
 460 504 l 1
 172 504 l 1
 172 560 l 1
 460 560 l 1
 460 615 l 1
 534 615 l 1
 534 560 l 1
 842 560 l 1
 842 446 l 1
534 446 m 1
 768 446 l 1
 768 504 l 1
 534 504 l 1
 534 446 l 1
768 389 m 1
 534 389 l 1
 534 324 l 1
 768 324 l 1
 768 389 l 1
EndSplineSet
Validated: 1
EndChar

StartChar: uni756B
Encoding: 30059 30059 128
Width: 1000
Flags: HW
LayerCount: 2
Fore
SplineSet
947 380 m 1
 947 328 l 1
 55 328 l 1
 55 380 l 1
 459 380 l 1
 459 432 l 1
 132 432 l 1
 132 479 l 1
 459 479 l 1
 459 530 l 1
 156 530 l 1
 156 576 l 1
 459 576 l 1
 459 631 l 1
 57 631 l 1
 57 678 l 1
 459 678 l 1
 459 729 l 1
 162 729 l 1
 162 775 l 1
 459 775 l 1
 459 837 l 1
 533 837 l 1
 533 775 l 1
 836 775 l 1
 836 678 l 1
 944 678 l 1
 944 631 l 1
 836 631 l 1
 836 530 l 1
 533 530 l 1
 533 479 l 1
 875 479 l 1
 875 432 l 1
 533 432 l 1
 533 380 l 1
 947 380 l 1
533 678 m 1
 762 678 l 1
 762 729 l 1
 533 729 l 1
 533 678 l 1
533 576 m 1
 762 576 l 1
 762 631 l 1
 533 631 l 1
 533 576 l 1
838 284 m 1
 838 52 l 1
 169 52 l 1
 169 284 l 1
 838 284 l 1
763 241 m 1
 531 241 l 1
 531 190 l 1
 763 190 l 1
 763 241 l 1
240 190 m 1
 462 190 l 1
 462 241 l 1
 240 241 l 1
 240 190 l 1
763 148 m 1
 531 148 l 1
 531 95 l 1
 763 95 l 1
 763 148 l 1
240 95 m 1
 462 95 l 1
 462 148 l 1
 240 148 l 1
 240 95 l 1
55 5 m 1
 947 5 l 1
 947 -48 l 1
 55 -48 l 1
 55 5 l 1
EndSplineSet
Validated: 1
EndChar

StartChar: uni30FB
Encoding: 12539 12539 129
Width: 1000
Flags: HW
LayerCount: 2
Fore
SplineSet
394 380 m 260
 394 410 404 436 424 456 c 132
 444 476 470 486 500 486 c 260
 530 486 556 476 576 456 c 132
 596 436 606 410 606 380 c 260
 606 350 596 324 576 304 c 132
 556 284 530 274 500 274 c 260
 470 274 444 284 424 304 c 132
 404 324 394 350 394 380 c 260
EndSplineSet
Validated: 1
EndChar

StartChar: uni25C0
Encoding: 9664 9664 130
Width: 1000
Flags: HW
LayerCount: 2
Fore
SplineSet
715 95 m 5
 227 377 l 5
 715 659 l 5
 715 95 l 5
EndSplineSet
Validated: 1
EndChar

StartChar: uni25B6
Encoding: 9654 9654 131
Width: 1000
Flags: HW
LayerCount: 2
Fore
SplineSet
285 95 m 5
 285 659 l 5
 773 377 l 5
 285 95 l 5
EndSplineSet
Validated: 1
EndChar

StartChar: uni21E7
Encoding: 8679 8679 132
Width: 1000
Flags: HW
LayerCount: 2
Fore
SplineSet
334 -70 m 1
 334 454 l 1
 159 454 l 1
 159 455 l 1
 500 845 l 1
 841 455 l 1
 841 454 l 1
 666 454 l 1
 666 -70 l 1
 334 -70 l 1
629 491 m 1
 759 491 l 1
 759 493 l 1
 500 789 l 1
 241 493 l 1
 241 491 l 1
 371 491 l 1
 371 -33 l 1
 629 -33 l 1
 629 491 l 1
EndSplineSet
Validated: 1
EndChar

StartChar: uni2B06
Encoding: 11014 11014 133
Width: 1000
Flags: HW
LayerCount: 2
Fore
SplineSet
334 454 m 1
 159 454 l 1
 159 455 l 1
 500 845 l 1
 841 455 l 1
 841 454 l 1
 666 454 l 1
 666 -70 l 1
 334 -70 l 1
 334 454 l 1
EndSplineSet
Validated: 1
EndChar

StartChar: minus
Encoding: 8722 8722 134
Width: 1000
Flags: HW
LayerCount: 2
Fore
SplineSet
833 410 m 1
 833 341 l 1
 167 341 l 1
 167 410 l 1
 833 410 l 1
EndSplineSet
Validated: 1
EndChar

StartChar: multiply
Encoding: 215 215 135
Width: 1000
Flags: HW
LayerCount: 2
Fore
SplineSet
774 54 m 1
 500 328 l 1
 227 54 l 1
 178 102 l 1
 452 376 l 1
 178 649 l 1
 227 698 l 1
 500 424 l 1
 774 698 l 1
 822 650 l 1
 549 376 l 1
 822 102 l 1
 774 54 l 1
EndSplineSet
Validated: 1
EndChar

StartChar: divide
Encoding: 247 247 136
Width: 1000
Flags: HW
LayerCount: 2
Fore
SplineSet
428 630 m 0
 428 650 435 668 449 682 c 128
 463 696 480 703 500 703 c 256
 520 703 537 696 551 682 c 128
 565 668 572 650 572 630 c 0
 572 611 565 594 551 580 c 128
 537 566 520 558 500 558 c 256
 480 558 463 566 449 580 c 128
 435 594 428 611 428 630 c 0
863 410 m 1
 863 341 l 1
 137 341 l 1
 137 410 l 1
 863 410 l 1
428 121 m 0
 428 140 435 158 449 172 c 128
 463 186 480 193 500 193 c 256
 520 193 537 186 551 172 c 128
 565 158 572 140 572 121 c 0
 572 101 565 84 551 70 c 128
 537 56 520 48 500 48 c 256
 480 48 463 56 449 70 c 128
 435 84 428 101 428 121 c 0
EndSplineSet
Validated: 1
EndChar

StartChar: degree
Encoding: 176 176 137
Width: 370
Flags: HW
LayerCount: 2
Fore
SplineSet
185 480 m 256
 166 480 149 483 132 490 c 128
 115 497 101 506 88 518 c 128
 75 530 64 546 56 564 c 128
 48 582 45 601 45 622 c 0
 45 644 48 664 56 681 c 128
 64 698 75 713 88 726 c 128
 101 739 115 748 132 755 c 128
 149 762 166 765 185 765 c 256
 204 765 221 762 238 755 c 128
 255 748 270 739 283 726 c 128
 296 713 306 698 314 681 c 128
 322 664 325 644 325 622 c 0
 325 601 322 582 314 564 c 128
 306 546 296 530 283 518 c 128
 270 506 255 497 238 490 c 128
 221 483 204 480 185 480 c 256
185 531 m 256
 210 531 231 539 246 556 c 128
 261 573 269 595 269 622 c 0
 269 649 261 671 246 688 c 128
 231 705 210 714 185 714 c 256
 160 714 139 705 124 688 c 128
 109 671 101 649 101 622 c 0
 101 595 109 573 124 556 c 128
 139 539 160 531 185 531 c 256
EndSplineSet
Validated: 1
EndChar

StartChar: cent
Encoding: 162 162 138
Width: 555
Flags: HW
LayerCount: 2
Fore
SplineSet
508 149 m 1
 486 129 462 112 435 100 c 128
 408 88 380 81 350 79 c 1
 350 -37 l 1
 293 -37 l 1
 293 80 l 1
 260 84 230 93 202 106 c 128
 174 119 150 137 130 160 c 128
 110 183 95 209 84 240 c 128
 73 271 68 307 68 346 c 0
 68 385 74 419 86 450 c 128
 98 481 114 508 134 530 c 128
 154 552 178 570 205 584 c 128
 232 598 262 607 293 612 c 1
 293 730 l 1
 350 730 l 1
 350 615 l 1
 383 614 411 607 435 594 c 128
 459 581 480 566 497 549 c 1
 452 492 l 1
 437 505 421 516 404 524 c 128
 387 532 369 538 350 539 c 1
 350 153 l 1
 373 154 394 160 414 170 c 128
 434 180 452 193 467 206 c 1
 508 149 l 1
293 534 m 1
 251 524 218 503 194 470 c 128
 170 437 158 395 158 346 c 0
 158 296 170 255 194 222 c 128
 218 189 251 167 293 158 c 1
 293 534 l 1
EndSplineSet
Validated: 1
EndChar

StartChar: yen
Encoding: 165 165 139
Width: 555
Flags: HW
LayerCount: 2
Fore
SplineSet
231 177 m 1
 51 177 l 1
 51 230 l 1
 231 230 l 1
 231 303 l 1
 51 303 l 1
 51 355 l 1
 208 355 l 1
 26 713 l 1
 122 713 l 1
 209 521 l 2
 220 496 231 472 242 447 c 128
 253 422 264 397 276 370 c 1
 281 370 l 1
 293 397 305 422 316 447 c 128
 327 472 338 496 349 521 c 2
 437 713 l 1
 529 713 l 1
 345 355 l 1
 504 355 l 1
 504 303 l 1
 322 303 l 1
 322 230 l 1
 504 230 l 1
 504 177 l 1
 322 177 l 1
 322 0 l 1
 231 0 l 1
 231 177 l 1
EndSplineSet
Validated: 1
EndChar

StartChar: Euro
Encoding: 8364 8364 140
Width: 555
Flags: HW
LayerCount: 2
Fore
SplineSet
548 91 m 1
 523 58 495 32 464 14 c 128
 433 -4 397 -13 356 -13 c 0
 289 -13 232 11 186 59 c 128
 140 107 111 175 98 262 c 1
 25 262 l 1
 25 311 l 1
 92 316 l 1
 91 323 91 330 91 336 c 128
 91 346 91 345 91 356 c 0
 91 365 91 365 91 374 c 128
 91 380 91 386 92 391 c 1
 25 391 l 1
 25 440 l 1
 97 445 l 1
 103 489 114 528 130 563 c 128
 146 598 164 628 188 652 c 128
 212 676 239 694 270 707 c 128
 301 720 334 726 371 726 c 0
 405 726 437 718 466 701 c 128
 495 684 519 664 538 639 c 1
 484 587 l 1
 469 607 451 623 432 635 c 128
 413 647 392 653 369 653 c 0
 319 653 279 635 249 598 c 128
 219 561 199 510 190 445 c 1
 475 445 l 1
 475 391 l 1
 185 391 l 1
 184 386 184 380 184 374 c 128
 184 366 184 366 184 358 c 0
 184 347 184 347 184 337 c 128
 184 330 184 324 185 317 c 1
 431 317 l 1
 431 262 l 1
 191 262 l 1
 200 199 220 150 249 114 c 128
 278 78 316 60 362 60 c 0
 389 60 413 67 434 80 c 128
 455 93 476 113 495 139 c 1
 548 91 l 1
EndSplineSet
Validated: 1
EndChar

StartChar: sterling
Encoding: 163 163 141
Width: 555
Flags: HW
LayerCount: 2
Fore
SplineSet
506 79 m 1
 506 0 l 1
 60 0 l 1
 60 56 l 1
 98 77 128 104 148 140 c 128
 168 176 178 215 178 257 c 0
 178 268 177 278 176 288 c 128
 175 298 173 308 171 319 c 1
 59 319 l 1
 59 377 l 1
 134 380 l 1
 154 380 l 1
 147 403 140 426 134 450 c 128
 128 474 124 498 124 522 c 0
 124 553 129 582 139 607 c 128
 149 632 163 654 181 672 c 128
 199 690 220 703 246 712 c 128
 272 721 301 726 332 726 c 0
 372 726 406 718 434 702 c 128
 462 686 485 667 505 642 c 1
 451 591 l 1
 437 608 421 623 403 634 c 128
 385 645 363 650 338 650 c 0
 298 650 268 638 246 614 c 128
 224 590 213 558 213 519 c 0
 213 495 216 472 222 449 c 128
 228 426 233 403 240 380 c 1
 419 380 l 1
 419 319 l 1
 254 319 l 1
 258 299 260 278 260 256 c 0
 260 216 254 183 243 157 c 128
 232 131 214 106 191 83 c 1
 191 79 l 1
 506 79 l 1
EndSplineSet
Validated: 1
EndChar

StartChar: uni82F1
Encoding: 33521 33521 142
Width: 1000
Flags: HW
LayerCount: 2
Fore
SplineSet
673 672 m 1
 523 672 l 1
 523 737 l 1
 673 737 l 1
 673 836 l 1
 747 836 l 1
 747 737 l 1
 928 737 l 1
 928 672 l 1
 747 672 l 1
 747 575 l 1
 673 575 l 1
 673 672 l 1
264 671 m 1
 78 671 l 1
 78 736 l 1
 264 736 l 1
 264 836 l 1
 337 836 l 1
 337 736 l 1
 474 736 l 1
 474 671 l 1
 337 671 l 1
 337 573 l 1
 264 573 l 1
 264 671 l 1
949 282 m 1
 949 213 l 1
 514 213 l 1
 505 184 491 156 472 128 c 128
 453 100 426 74 393 49 c 128
 360 24 318 1 268 -20 c 128
 218 -41 157 -61 86 -78 c 1
 82 -70 76 -60 67 -48 c 128
 58 -36 50 -25 42 -17 c 1
 106 -3 161 13 206 30 c 128
 251 47 289 66 320 86 c 128
 351 106 376 126 394 147 c 128
 412 168 426 190 436 213 c 1
 51 213 l 1
 51 282 l 1
 163 282 l 1
 163 529 l 1
 458 529 l 1
 458 626 l 1
 532 626 l 1
 532 529 l 1
 843 529 l 1
 843 282 l 1
 949 282 l 1
532 350 m 2
 532 339 532 327 531 316 c 128
 530 305 529 293 528 282 c 1
 769 282 l 1
 769 463 l 1
 532 463 l 1
 532 350 l 2
454 282 m 1
 455 293 456 305 457 316 c 128
 458 327 458 339 458 350 c 2
 458 463 l 1
 235 463 l 1
 235 282 l 1
 454 282 l 1
550 189 m 1
 583 176 619 160 656 143 c 128
 693 126 730 108 766 90 c 128
 802 72 836 54 868 36 c 128
 900 18 926 1 948 -14 c 1
 911 -76 l 1
 889 -61 862 -44 831 -25 c 128
 800 -6 766 13 730 32 c 128
 694 51 658 70 621 88 c 128
 584 106 548 122 514 137 c 1
 550 189 l 1
EndSplineSet
Validated: 1
EndChar

StartChar: uniE000
Encoding: 57344 57344 143
Width: 1000
Flags: HW
LayerCount: 2
Fore
SplineSet
943 610 m 5
 920 570 912 558 883 523 c 132
 854 488 845 478 812 448 c 132
 779 418 769 411 733 387 c 132
 697 363 686 356 648 338 c 5
 644 345 638 354 631 365 c 132
 624 376 617 385 611 392 c 5
 649 407 659 411 694 433 c 132
 729 455 738 462 769 489 c 132
 800 516 807 523 834 556 c 132
 861 589 866 597 887 634 c 5
 943 610 l 5
863 132 m 5
 858 113 853 97 847 77 c 132
 841 57 834 37 827 18 c 132
 820 -1 812 -22 805 -39 c 132
 798 -56 792 -70 786 -84 c 5
 723 -68 l 5
 731 -49 741 -25 751 1 c 132
 761 27 772 55 780 83 c 5
 456 83 l 5
 456 145 l 5
 794 145 l 5
 807 148 l 5
 863 132 l 5
302 197 m 5
 317 167 335 134 353 98 c 132
 371 62 389 28 406 -7 c 132
 423 -42 441 -77 456 -109 c 132
 471 -141 484 -169 494 -193 c 5
 424 -217 l 5
 415 -193 404 -164 390 -132 c 132
 376 -100 359 -66 343 -30 c 132
 327 6 309 43 291 79 c 132
 273 115 257 148 241 180 c 5
 302 197 l 5
525 680 m 5
 525 246 l 5
 458 246 l 5
 458 680 l 5
 525 680 l 5
345 362 m 5
 345 306 l 5
 0 306 l 5
 0 362 l 5
 345 362 l 5
EndSplineSet
Validated: 1
EndChar
